<svg id="Layer_1" data-name="Layer 1" xmlns="http://www.w3.org/2000/svg" viewBox="0 0 1603 1118"><defs><style>.cls-1{fill:#efa240;}.cls-2{fill:#afdbc9;}.cls-3{fill:#fff;}.cls-4{fill:#ed78aa;}.cls-5{fill:#3a385f;}</style></defs><rect class="cls-1" x="1057.04" y="636.77" width="137.84" height="454.82"/><rect class="cls-2" x="1194.56" y="705.64" width="257.43" height="386.3"/><path class="cls-3" d="M1279.24,733.68A13.25,13.25,0,0,0,1266,746.94v33.48h26.52V746.94A13.26,13.26,0,0,0,1279.24,733.68Z"/><path class="cls-3" d="M1279.24,817.61A13.26,13.26,0,0,0,1266,830.88v33.48h26.52V830.88A13.27,13.27,0,0,0,1279.24,817.61Z"/><path class="cls-3" d="M1279.24,901.55A13.26,13.26,0,0,0,1266,914.81v33.48h26.52V914.81A13.26,13.26,0,0,0,1279.24,901.55Z"/><path class="cls-3" d="M1279.24,985.49A13.26,13.26,0,0,0,1266,998.75v33.48h26.52V998.75A13.26,13.26,0,0,0,1279.24,985.49Z"/><rect class="cls-3" x="1259.62" y="780.42" width="39.67" height="8.71"/><rect class="cls-3" x="1259.62" y="864.36" width="39.67" height="8.71"/><rect class="cls-3" x="1259.62" y="948.29" width="39.67" height="8.71"/><rect class="cls-3" x="1259.62" y="1032.23" width="39.67" height="8.71"/><path class="cls-3" d="M1371.13,733.68a13.25,13.25,0,0,0-13.26,13.26v33.48h26.51V746.94A13.25,13.25,0,0,0,1371.13,733.68Z"/><path class="cls-3" d="M1371.13,817.61a13.26,13.26,0,0,0-13.26,13.27v33.48h26.51V830.88A13.26,13.26,0,0,0,1371.13,817.61Z"/><path class="cls-3" d="M1371.13,901.55a13.26,13.26,0,0,0-13.26,13.26v33.48h26.51V914.81A13.26,13.26,0,0,0,1371.13,901.55Z"/><path class="cls-3" d="M1371.13,985.49a13.26,13.26,0,0,0-13.26,13.26v33.48h26.51V998.75A13.26,13.26,0,0,0,1371.13,985.49Z"/><rect class="cls-3" x="1351.51" y="780.42" width="39.67" height="8.71"/><rect class="cls-3" x="1351.51" y="864.36" width="39.67" height="8.71"/><rect class="cls-3" x="1351.51" y="948.29" width="39.67" height="8.71"/><rect class="cls-3" x="1351.51" y="1032.23" width="39.67" height="8.71"/><rect class="cls-4" x="940.34" y="702.18" width="116.98" height="14.5"/><rect class="cls-5" x="940.34" y="716.27" width="116.98" height="375.29"/><rect class="cls-3" x="990.64" y="765.57" width="19.9" height="58.67"/><rect class="cls-2" x="984.19" y="759.99" width="32.8" height="5.58"/><rect class="cls-3" x="990.64" y="873.86" width="19.9" height="58.67"/><rect class="cls-2" x="984.19" y="868.28" width="32.8" height="5.58"/><rect class="cls-3" x="990.64" y="983.43" width="19.9" height="58.67"/><rect class="cls-2" x="984.19" y="977.86" width="32.8" height="5.58"/><path class="cls-3" d="M1122.3,682.6A13.26,13.26,0,0,0,1109,695.86v33.48h26.52V695.86A13.26,13.26,0,0,0,1122.3,682.6Z"/><path class="cls-3" d="M1122.3,787.79A13.26,13.26,0,0,0,1109,801.05v33.48h26.52V801.05A13.26,13.26,0,0,0,1122.3,787.79Z"/><path class="cls-3" d="M1122.3,998.19a13.25,13.25,0,0,0-13.26,13.25v33.49h26.52v-33.49A13.26,13.26,0,0,0,1122.3,998.19Z"/><path class="cls-3" d="M1122.3,893A13.26,13.26,0,0,0,1109,906.25v33.48h26.52V906.25A13.26,13.26,0,0,0,1122.3,893Z"/><rect class="cls-2" x="1212.32" y="636.77" width="24.75" height="58.79"/><rect class="cls-2" x="1243.26" y="659.97" width="24.75" height="35.58"/><path class="cls-2" d="M597.84,1107.55h460.8c14.16-38.54-17.78-59.37-48.88-65-25-4.57-22.92-32.43-38.8-52.5-6.26-7.93-13.64-15.38-22.94-19.16s-20.88-3.18-28.29,3.67c-4.26,3.93-6.73,9.42-10.29,14-15.27,19.7-46.81,17.62-67.23,3.5s-33.22-36.66-48-56.73a308.58,308.58,0,0,0-79.32-74.59c-10.85-7.11-22.88-13.76-35.8-13.39-16.27.48-30.7,12.61-37.54,27.57s-7.11,32.24-4.59,48.53c2.28,14.72,6.55,30.59-.13,43.86-12.22,24.27-49,20.18-69.41,37.94-17.92,15.59-18.06,45.12-6.3,65.88C569.75,1086.33,583.19,1097.81,597.84,1107.55Z"/><rect class="cls-5" x="1195.3" y="687.54" width="259.1" height="19.38"/></svg>