<svg id="Layer_1" data-name="Layer 1" xmlns="http://www.w3.org/2000/svg" viewBox="0 0 1603 1118"><defs><style>.cls-1{fill:#afdbc9;}.cls-2{fill:#fff;}.cls-3{fill:#3a385f;}.cls-4{fill:#efa240;}.cls-5{fill:#ed78aa;}.cls-6{fill:#ed7058;}</style></defs><rect class="cls-1" x="193.04" y="488.07" width="270.24" height="516.46"/><path class="cls-2" d="M287.16,507.85a17.73,17.73,0,0,0-17.72,17.73v44.76H304.9V525.58A17.73,17.73,0,0,0,287.16,507.85Z"/><path class="cls-2" d="M367.68,507.85A17.73,17.73,0,0,0,350,525.58v44.76H385.4V525.58A17.72,17.72,0,0,0,367.68,507.85Z"/><path class="cls-2" d="M287.16,620.07a17.73,17.73,0,0,0-17.72,17.73v44.76H304.9V637.8A17.73,17.73,0,0,0,287.16,620.07Z"/><path class="cls-2" d="M367.68,620.07A17.73,17.73,0,0,0,350,637.8v44.76H385.4V637.8A17.72,17.72,0,0,0,367.68,620.07Z"/><path class="cls-2" d="M287.16,732.29A17.73,17.73,0,0,0,269.44,750v44.76H304.9V750A17.73,17.73,0,0,0,287.16,732.29Z"/><path class="cls-2" d="M367.68,732.29A17.73,17.73,0,0,0,350,750v44.76H385.4V750A17.72,17.72,0,0,0,367.68,732.29Z"/><path class="cls-2" d="M287.16,844.51a17.73,17.73,0,0,0-17.72,17.73V907H304.9V862.24A17.73,17.73,0,0,0,287.16,844.51Z"/><path class="cls-2" d="M367.68,844.51A17.73,17.73,0,0,0,350,862.24V907H385.4V862.24A17.72,17.72,0,0,0,367.68,844.51Z"/><rect class="cls-2" x="260.94" y="570.34" width="53.05" height="11.65"/><rect class="cls-2" x="341.46" y="570.34" width="53.04" height="11.65"/><rect class="cls-2" x="260.94" y="682.56" width="53.05" height="11.64"/><rect class="cls-2" x="341.46" y="682.56" width="53.04" height="11.64"/><rect class="cls-2" x="260.94" y="794.78" width="53.05" height="11.64"/><rect class="cls-2" x="341.46" y="794.78" width="53.04" height="11.64"/><rect class="cls-2" x="260.94" y="907" width="53.05" height="11.65"/><rect class="cls-2" x="341.46" y="907" width="53.04" height="11.65"/><rect class="cls-3" x="192.97" y="468.24" width="270.35" height="19.83"/><rect class="cls-3" x="192.97" y="457.9" width="270.35" height="10.34"/><rect class="cls-4" x="463.28" y="483.46" width="156.4" height="19.38"/><rect class="cls-5" x="463.28" y="502.28" width="156.4" height="501.73"/><rect class="cls-2" x="530.54" y="568.2" width="26.6" height="78.43"/><rect class="cls-1" x="521.92" y="560.74" width="43.85" height="7.46"/><rect class="cls-2" x="530.54" y="712.97" width="26.6" height="78.43"/><rect class="cls-1" x="521.92" y="705.52" width="43.85" height="7.46"/><rect class="cls-2" x="530.54" y="859.47" width="26.6" height="78.43"/><rect class="cls-1" x="521.92" y="852.01" width="43.85" height="7.46"/><circle class="cls-6" cx="1316.59" cy="226.96" r="137.21"/><circle class="cls-4" cx="1316.59" cy="227.33" r="88.67"/><circle class="cls-5" cx="1316.59" cy="227.33" r="53.64"/><path class="cls-1" d="M1114.94,402.07q172-.76,344-1.15c-6.11-27.84-42.66-43.84-67.26-29.43-.37-25.23-9.66-50.76-27.73-68.37s-45.26-26.3-69.63-19.74-44.19,29.4-44.71,54.63c-17-7.74-35.09-15.66-53.72-13.87s-37.37,17.18-35.69,35.82c-11.14-10.06-30-9.93-41,.27s-12.58,29-3.4,40.9"/><path class="cls-4" d="M98.87,1015.25H513c12.72-34.62-16-53.35-43.93-58.46-22.45-4.1-20.6-29.13-34.86-47.18-5.64-7.12-12.27-13.81-20.63-17.21s-18.76-2.85-25.42,3.29c-3.82,3.54-6.05,8.47-9.25,12.6-13.72,17.7-42.06,15.83-60.41,3.14s-29.85-32.95-43.15-51a277.33,277.33,0,0,0-71.28-67c-9.75-6.38-20.56-12.37-32.17-12-14.62.43-27.59,11.33-33.74,24.77s-6.39,29-4.12,43.61c2,13.23,5.89,27.49-.12,39.42-11,21.82-44,18.13-62.38,34.09-16.1,14-16.22,40.56-5.65,59.21C73.63,996.19,85.71,1006.5,98.87,1015.25Z"/></svg>