<svg id="Layer_1" data-name="Layer 1" xmlns="http://www.w3.org/2000/svg" viewBox="0 0 1603 1118"><defs><style>.cls-1{fill:#ed78aa;}.cls-2{fill:#3a385f;}.cls-3{fill:#efa240;}.cls-4{fill:#afdbc9;}.cls-5{fill:#fff;}.cls-6{fill:#ed7058;}</style></defs><rect class="cls-1" x="864.68" y="698.38" width="368.59" height="390.64"/><rect class="cls-2" x="857.99" y="689.72" width="383.17" height="32.24"/><rect class="cls-3" x="1232.96" y="793.31" width="204.93" height="296.09"/><rect class="cls-4" x="1232.96" y="786.47" width="204.93" height="20.48"/><path class="cls-5" d="M1294.94,834.77a18.77,18.77,0,0,0-18.77,18.77V901h37.54V853.54A18.77,18.77,0,0,0,1294.94,834.77Z"/><path class="cls-5" d="M1375.08,834.77a18.78,18.78,0,0,0-18.78,18.77V901h37.55V853.54A18.77,18.77,0,0,0,1375.08,834.77Z"/><path class="cls-5" d="M1294.94,935.37a18.77,18.77,0,0,0-18.77,18.77v47.41h37.54V954.14A18.77,18.77,0,0,0,1294.94,935.37Z"/><path class="cls-5" d="M1375.08,935.37a18.78,18.78,0,0,0-18.78,18.77v47.41h37.55V954.14A18.77,18.77,0,0,0,1375.08,935.37Z"/><rect class="cls-5" x="932.01" y="775.37" width="32.19" height="94.91"/><rect class="cls-4" x="921.58" y="766.35" width="53.06" height="9.02"/><rect class="cls-5" x="1032.5" y="775.37" width="32.19" height="94.91"/><rect class="cls-4" x="1022.06" y="766.35" width="53.06" height="9.02"/><rect class="cls-5" x="1132.98" y="775.37" width="32.19" height="94.91"/><rect class="cls-4" x="1122.55" y="766.35" width="53.06" height="9.02"/><rect class="cls-5" x="932.01" y="923.07" width="32.19" height="94.91"/><rect class="cls-4" x="921.58" y="914.04" width="53.06" height="9.02"/><rect class="cls-5" x="1032.5" y="923.07" width="32.19" height="94.91"/><rect class="cls-4" x="1022.06" y="914.04" width="53.06" height="9.02"/><rect class="cls-5" x="1132.98" y="923.07" width="32.19" height="94.91"/><rect class="cls-4" x="1122.55" y="914.04" width="53.06" height="9.02"/><path class="cls-6" d="M1318.06,740.71q137.4-.78,274.79-1.16c-4.88-28.07-34.08-44.19-53.73-29.67-.29-25.43-7.71-51.17-22.15-68.92s-36.15-26.5-55.62-19.89-35.29,29.63-35.71,55.07c-13.61-7.81-28-15.79-42.91-14s-29.85,17.32-28.51,36.11a21.36,21.36,0,0,0-32.77.27c-8.8,10.29-10,29.25-2.72,41.23"/><path class="cls-4" d="M718.24,1114.82H1073c10.9-29.66-13.69-45.7-37.63-50.08-19.24-3.52-17.65-25-29.87-40.42-4.83-6.1-10.51-11.84-17.67-14.75s-16.08-2.44-21.78,2.82c-3.28,3-5.18,7.26-7.92,10.79-11.76,15.17-36,13.57-51.77,2.7s-25.57-28.23-37-43.68a237.65,237.65,0,0,0-61.07-57.43c-8.35-5.47-17.61-10.59-27.56-10.3-12.53.36-23.64,9.7-28.9,21.22s-5.48,24.82-3.54,37.36c1.76,11.33,5,23.55-.1,33.77-9.4,18.69-37.73,15.54-53.44,29.21-13.8,12-13.9,34.74-4.85,50.72C696.61,1098.49,707,1107.33,718.24,1114.82Z"/></svg>