<svg id="Layer_1" data-name="Layer 1" xmlns="http://www.w3.org/2000/svg" viewBox="0 0 1603 1118"><defs><style>.cls-1{fill:#efa240;}.cls-2{fill:#afdbc9;}.cls-3{fill:#fff;}.cls-4{fill:#ed78aa;}.cls-5{fill:#3a385f;}.cls-6{fill:#ed7058;}</style></defs><rect class="cls-1" x="1173.24" y="549.78" width="141.78" height="512.22"/><rect class="cls-2" x="1314.69" y="665.03" width="264.79" height="397.34"/><path class="cls-3" d="M1401.78,693.87a13.64,13.64,0,0,0-13.64,13.64V742h27.28V707.51A13.64,13.64,0,0,0,1401.78,693.87Z"/><path class="cls-3" d="M1401.78,780.21a13.64,13.64,0,0,0-13.64,13.64v34.44h27.28V793.85A13.64,13.64,0,0,0,1401.78,780.21Z"/><path class="cls-3" d="M1401.78,866.55a13.64,13.64,0,0,0-13.64,13.63v34.44h27.28V880.18A13.64,13.64,0,0,0,1401.78,866.55Z"/><path class="cls-3" d="M1401.78,952.88a13.64,13.64,0,0,0-13.64,13.64V1001h27.28V966.52A13.64,13.64,0,0,0,1401.78,952.88Z"/><rect class="cls-3" x="1381.61" y="741.95" width="40.81" height="8.96"/><rect class="cls-3" x="1381.61" y="828.29" width="40.81" height="8.96"/><rect class="cls-3" x="1381.61" y="914.62" width="40.81" height="8.96"/><rect class="cls-3" x="1381.61" y="1000.96" width="40.81" height="8.96"/><path class="cls-3" d="M1496.3,693.87a13.64,13.64,0,0,0-13.64,13.64V742h27.27V707.51A13.64,13.64,0,0,0,1496.3,693.87Z"/><path class="cls-3" d="M1496.3,780.21a13.64,13.64,0,0,0-13.64,13.64v34.44h27.27V793.85A13.64,13.64,0,0,0,1496.3,780.21Z"/><path class="cls-3" d="M1496.3,866.55a13.63,13.63,0,0,0-13.64,13.63v34.44h27.27V880.18A13.63,13.63,0,0,0,1496.3,866.55Z"/><path class="cls-3" d="M1496.3,952.88a13.64,13.64,0,0,0-13.64,13.64V1001h27.27V966.52A13.64,13.64,0,0,0,1496.3,952.88Z"/><rect class="cls-3" x="1476.12" y="741.95" width="40.81" height="8.96"/><rect class="cls-3" x="1476.12" y="828.29" width="40.81" height="8.96"/><rect class="cls-3" x="1476.12" y="914.62" width="40.81" height="8.96"/><rect class="cls-3" x="1476.12" y="1000.96" width="40.81" height="8.96"/><rect class="cls-4" x="1315.45" y="647.52" width="266.5" height="19.93"/><rect class="cls-4" x="1053.2" y="661.48" width="120.32" height="14.91"/><rect class="cls-5" x="1053.2" y="675.96" width="120.32" height="386.01"/><rect class="cls-3" x="1104.94" y="726.68" width="20.46" height="60.34"/><rect class="cls-2" x="1098.31" y="720.93" width="33.74" height="5.74"/><rect class="cls-3" x="1104.94" y="838.06" width="20.46" height="60.34"/><rect class="cls-2" x="1098.31" y="832.32" width="33.74" height="5.74"/><rect class="cls-3" x="1104.94" y="950.76" width="20.46" height="60.34"/><rect class="cls-2" x="1098.31" y="945.03" width="33.74" height="5.74"/><path class="cls-3" d="M1240.36,641.33A13.64,13.64,0,0,0,1226.72,655v34.44H1254V655A13.64,13.64,0,0,0,1240.36,641.33Z"/><path class="cls-3" d="M1240.36,749.54a13.64,13.64,0,0,0-13.64,13.63v34.44H1254V763.17A13.64,13.64,0,0,0,1240.36,749.54Z"/><path class="cls-3" d="M1240.36,965.94a13.64,13.64,0,0,0-13.64,13.63V1014H1254V979.57A13.64,13.64,0,0,0,1240.36,965.94Z"/><path class="cls-3" d="M1240.36,857.74a13.64,13.64,0,0,0-13.64,13.63v34.44H1254V871.37A13.64,13.64,0,0,0,1240.36,857.74Z"/><rect class="cls-4" x="1332.96" y="598.19" width="25.46" height="60.47"/><rect class="cls-4" x="1364.78" y="622.06" width="25.46" height="36.6"/><path class="cls-2" d="M779.19,1114.51h474c14.56-39.63-18.29-61.06-50.27-66.91-25.7-4.7-23.58-33.35-39.91-54-6.44-8.16-14-15.82-23.6-19.71s-21.48-3.26-29.09,3.77c-4.38,4.05-6.93,9.69-10.59,14.42-15.71,20.26-48.15,18.12-69.15,3.6S996.38,958,981.17,937.33a317.23,317.23,0,0,0-81.59-76.71c-11.16-7.31-23.53-14.16-36.82-13.77-16.74.49-31.58,13-38.61,28.35s-7.32,33.16-4.72,49.92c2.34,15.13,6.74,31.46-.14,45.11-12.56,25-50.41,20.75-71.39,39-18.44,16-18.58,46.41-6.48,67.76C750.3,1092.69,764.13,1104.5,779.19,1114.51Z"/><path class="cls-6" d="M8.81,361.23q272.43-1.22,544.87-1.82C544,315.31,486.12,290,447.16,312.79c-.6-40-15.31-80.4-43.93-108.29s-71.69-41.65-110.29-31.26-70,46.56-70.81,86.53c-27-12.26-55.57-24.81-85.09-22S77.85,265,80.52,294.53C62.86,278.6,33,278.8,15.53,295s-19.92,46-5.39,64.77"/><path class="cls-1" d="M282.37,395q184.78-.83,369.58-1.23c-6.56-29.92-45.83-47.1-72.26-31.62-.4-27.11-10.38-54.54-29.79-73.46s-48.63-28.24-74.81-21.2-47.47,31.58-48,58.69c-18.31-8.31-37.69-16.82-57.72-14.91S329.2,329.74,331,349.77c-12-10.8-32.25-10.67-44.09.29s-13.51,31.17-3.65,43.94"/></svg>