<svg id="Layer_1" data-name="Layer 1" xmlns="http://www.w3.org/2000/svg" viewBox="0 0 1603 1118"><defs><style>.cls-1{fill:#afdbc9;}.cls-2{fill:#fff;}.cls-3{fill:#3a385f;}.cls-4{fill:#efa240;}.cls-5{fill:#ed78aa;}</style></defs><rect class="cls-1" x="1030.89" y="593.43" width="274.53" height="524.66"/><path class="cls-2" d="M1126.51,613.53a18,18,0,0,0-18,18V677h36V631.53A18,18,0,0,0,1126.51,613.53Z"/><path class="cls-2" d="M1208.31,613.53a18,18,0,0,0-18,18V677h36V631.53A18,18,0,0,0,1208.31,613.53Z"/><path class="cls-2" d="M1126.51,727.53a18,18,0,0,0-18,18V791h36V745.54A18,18,0,0,0,1126.51,727.53Z"/><path class="cls-2" d="M1208.31,727.53a18,18,0,0,0-18,18V791h36V745.54A18,18,0,0,0,1208.31,727.53Z"/><path class="cls-2" d="M1126.51,841.53a18,18,0,0,0-18,18V905h36V859.54A18,18,0,0,0,1126.51,841.53Z"/><path class="cls-2" d="M1208.31,841.53a18,18,0,0,0-18,18V905h36V859.54A18,18,0,0,0,1208.31,841.53Z"/><path class="cls-2" d="M1126.51,955.54a18,18,0,0,0-18,18V1019h36V973.54A18,18,0,0,0,1126.51,955.54Z"/><path class="cls-2" d="M1208.31,955.54a18,18,0,0,0-18,18V1019h36V973.54A18,18,0,0,0,1208.31,955.54Z"/><rect class="cls-2" x="1099.87" y="677.01" width="53.9" height="11.83"/><rect class="cls-2" x="1181.67" y="677.01" width="53.88" height="11.83"/><rect class="cls-2" x="1099.87" y="791.01" width="53.9" height="11.83"/><rect class="cls-2" x="1181.67" y="791.01" width="53.88" height="11.83"/><rect class="cls-2" x="1099.87" y="905.01" width="53.9" height="11.83"/><rect class="cls-2" x="1181.67" y="905.01" width="53.88" height="11.83"/><rect class="cls-2" x="1099.87" y="1019.02" width="53.9" height="11.83"/><rect class="cls-2" x="1181.67" y="1019.02" width="53.88" height="11.83"/><rect class="cls-3" x="1030.82" y="573.29" width="274.64" height="20.14"/><rect class="cls-3" x="1030.82" y="562.78" width="274.64" height="10.51"/><rect class="cls-4" x="1305.43" y="588.74" width="158.88" height="19.69"/><rect class="cls-5" x="1305.43" y="607.87" width="158.88" height="509.7"/><rect class="cls-2" x="1373.75" y="674.83" width="27.02" height="79.68"/><rect class="cls-1" x="1364.99" y="667.25" width="44.55" height="7.58"/><rect class="cls-2" x="1373.75" y="821.91" width="27.02" height="79.68"/><rect class="cls-1" x="1364.99" y="814.33" width="44.55" height="7.57"/><rect class="cls-2" x="1373.75" y="970.73" width="27.02" height="79.68"/><rect class="cls-1" x="1364.99" y="963.15" width="44.55" height="7.57"/><path class="cls-4" d="M683.56,1119.78h420.68c12.93-35.18-16.23-54.2-44.62-59.39-22.81-4.17-20.93-29.6-35.42-47.93-5.72-7.23-12.45-14-21-17.48s-19.06-2.9-25.82,3.34c-3.89,3.59-6.15,8.61-9.4,12.8-13.94,18-42.73,16.08-61.38,3.19s-30.32-33.47-43.83-51.79a281.71,281.71,0,0,0-72.41-68.09c-9.91-6.49-20.89-12.57-32.68-12.23-14.86.44-28,11.51-34.27,25.17s-6.49,29.43-4.19,44.3c2.07,13.44,6,27.93-.12,40-11.16,22.17-44.74,18.43-63.37,34.64-16.36,14.24-16.49,41.2-5.75,60.15C657.91,1100.41,670.19,1110.89,683.56,1119.78Z"/><path class="cls-1" d="M922.43,371.45q272.43-1.21,544.87-1.82c-9.68-44.1-67.57-69.43-106.53-46.61-.59-40-15.3-80.41-43.93-108.3s-71.69-41.65-110.28-31.26-70,46.56-70.81,86.53c-27-12.26-55.58-24.81-85.09-22s-59.19,27.21-56.53,56.75c-17.65-15.93-47.54-15.74-65,.42s-19.92,46-5.38,64.77"/><path class="cls-2" d="M608,225.23q184.8-.82,369.59-1.23c-6.57-29.92-45.83-47.1-72.26-31.62-.4-27.11-10.38-54.53-29.8-73.46s-48.62-28.24-74.8-21.2-47.47,31.59-48,58.69c-18.32-8.31-37.7-16.82-57.72-14.9S654.82,160,656.62,180c-12-10.81-32.25-10.68-44.08.29s-13.51,31.16-3.65,43.93"/></svg>