<svg xmlns="http://www.w3.org/2000/svg" width="793.99" height="651.51" viewBox="0 0 793.99 651.51" overflow="visible">
  <style>
    .st0{fill:#fff}.st1{fill:#efa240}.st2{fill:#afdbc9}.st3{fill:#3a385f}.st4{fill:#ed78aa}.st5{fill:#ed7058}
  </style>
  <path class="st0" d="M547.26 39.33C293.8-28.01 296.79-35.41 137.62 235.43c-197.56 336.15 99.17 528.68 342.17 344.96 0 0 659.55-383.74 67.47-541.06z"/>
  <path class="st1" d="M276.62 279.99h89.1v294h-89.1z"/>
  <path class="st2" d="M365.52 324.5h166.41v249.71H365.52z"/>
  <path class="st0" d="M420.25 342.63c-4.73 0-8.57 3.84-8.57 8.57v21.64h17.14V351.2c.01-4.73-3.83-8.57-8.57-8.57zM420.25 396.89c-4.73 0-8.57 3.84-8.57 8.57v21.64h17.14v-21.64c.01-4.73-3.83-8.57-8.57-8.57zM420.25 451.15c-4.73 0-8.57 3.84-8.57 8.57v21.64h17.14v-21.64c.01-4.74-3.83-8.57-8.57-8.57zM420.25 505.41c-4.73 0-8.57 3.84-8.57 8.57v21.64h17.14v-21.64c.01-4.74-3.83-8.57-8.57-8.57zM407.58 372.84h25.65v5.63h-25.65zM407.58 427.1h25.65v5.63h-25.65zM407.58 481.36h25.65v5.63h-25.65zM407.58 535.62h25.65v5.63h-25.65zM479.65 342.63c-4.73 0-8.57 3.84-8.57 8.57v21.64h17.14V351.2c0-4.73-3.83-8.57-8.57-8.57zM479.65 396.89c-4.73 0-8.57 3.84-8.57 8.57v21.64h17.14v-21.64c0-4.73-3.83-8.57-8.57-8.57zM479.65 451.15c-4.73 0-8.57 3.84-8.57 8.57v21.64h17.14v-21.64c0-4.74-3.83-8.57-8.57-8.57zM479.65 505.41c-4.73 0-8.57 3.84-8.57 8.57v21.64h17.14v-21.64c0-4.74-3.83-8.57-8.57-8.57zM466.97 372.84h25.65v5.63h-25.65zM466.97 427.1h25.65v5.63h-25.65zM466.97 481.36h25.65v5.63h-25.65zM466.97 535.62h25.65v5.63h-25.65z"/>
  <path class="st3" d="M366 310.99h167.48v12.53H366z"/>
  <path class="st4" d="M201.18 322.27h75.62v9.37h-75.62z"/>
  <path class="st3" d="M201.18 331.37h75.62v242.59h-75.62z"/>
  <path class="st0" d="M233.7 363.25h12.86v37.92H233.7z"/>
  <path class="st2" d="M229.53 359.64h21.2v3.61h-21.2z"/>
  <path class="st0" d="M233.7 433.24h12.86v37.92H233.7z"/>
  <path class="st2" d="M229.53 429.64h21.2v3.61h-21.2z"/>
  <path class="st0" d="M233.7 504.07h12.86v37.92H233.7z"/>
  <path class="st2" d="M229.53 500.47h21.2v3.61h-21.2z"/>
  <path class="st0" d="M318.81 309.61c-4.73 0-8.57 3.84-8.57 8.57v21.64h17.14v-21.64c0-4.73-3.84-8.57-8.57-8.57zM318.81 377.61c-4.73 0-8.57 3.84-8.57 8.57v21.64h17.14v-21.64c0-4.73-3.84-8.57-8.57-8.57zM318.81 513.61c-4.73 0-8.57 3.84-8.57 8.57v21.64h17.14v-21.64c0-4.73-3.84-8.57-8.57-8.57zM318.81 445.61c-4.73 0-8.57 3.84-8.57 8.57v21.64h17.14v-21.64c0-4.73-3.84-8.57-8.57-8.57z"/>
  <path class="st3" d="M377 279.99h16v38h-16zM397 294.99h16v23h-16zM461.85 249.82c-2.92 1.53-6.39 1.45-9.69 1.31-3.3-.15-6.74-.3-9.73 1.09-2.99 1.39-5.28 4.9-4.14 7.99-1.58 2.75-3.22 6.2-2.04 9.14.63 1.57 1.99 2.75 3.45 3.62 4.82 2.9 10.97 3.01 16.31 1.24 5.34-1.77 9.97-5.23 14.03-9.13-2.4-5.01-5.8-10.24-8.19-15.26z"/>
  <path class="st5" d="M511.6 66.17s-11.13 31.58 7.36 43.51c18.5 11.93 26.11 22.76 26.11 22.76l5.62-36.07-7.34-19.91-15.21-8.65-16.54-1.64z"/>
  <path class="st3" d="M534.83 299.81a1232.518 1232.518 0 0 0-16.65 277.23l21.29.61c29.18-45.1 45.51-98.43 47.72-152.1 1.33-32.34 7.64-66.99-5.12-96.74-7.01-16.34-29.57-26.93-47.24-29z"/>
  <path class="st3" d="M533.65 299.16c9.52 100.01 44.29 197.52 100.21 280.98 6.17-2.17 11.66-3.73 17.83-5.91-6.41-53.3-18.64-106.61-33.69-158.15 10.7-40.72 14.86-85.14 14.1-127.24-30.86 1.19-68.11 4.53-98.45 10.32zM576.45 96.15c-3.16-16.71-13.6-31.91-28.06-40.85-5.19 6.83-9.3 14.9-11.68 23.14 3.51 9.53 7.43 19.15 10.94 28.69 9.24-1.85 20.68-6.23 28.8-10.98z"/>
  <path class="st3" d="M511.99 53.47c.92 13.32 8.4 26.03 19.61 33.3 5.03 3.26 12.32-2.56 16.13-7.19 3.81-4.63 5.66-10.64 6.12-16.61.58-7.58-1.21-15.71-6.55-21.12-5.23-5.29-13.62-7.2-20.63-4.69s-15.19 8.88-14.68 16.31z"/>
  <path class="st1" d="M530.59 307.66c-3.34-37.65-6.68-75.44-5.04-113.2 1.24-28.54 5.41-57.21 14.31-84.28 5.48-16.68 25.72-23.11 39.82-12.65 12.27 9.1 22.12 21.86 29.02 35.95 11.81 24.1 15.76 51.17 19.56 77.74 4.62 32.26 9.23 64.53 13.85 96.79-36.04 7.94-75.09 5.62-111.52-.35z"/>
  <path class="st5" d="M506.69 63.4c-1.76-.07-3.33-1.25-4.28-2.73-.95-1.48-1.39-3.23-1.74-4.95-1.43-7.04-1.6-14.66 1.62-21.08 2.89-5.74 8.3-9.97 14.31-12.25 6.01-2.28 12.03-10.83 18.44-10.38 7.58.54 18.6 2.24 24.77 6.69 5.79 4.18 14.35 15.32 18.07 21.42 9.33 15.29 9.64 34.79 11.02 52.65-3.66 1.56-7.96 1.54-11.6-.07-3.64-1.61-6.56-4.77-7.88-8.52-.9-2.58-1.11-5.47-2.65-7.72-3.36-4.9-11.3-4.54-14.92-9.25-2.75-3.59-2.05-8.92-4.64-12.63-2.23-3.19-6.39-4.4-10.27-4.73-3.88-.33-7.86-.01-11.6-1.1s-7.89-4.11-7.95-8c-.07 9.41-.71 29.6-5.78 37.53l-4.92-14.88z"/>
  <path class="st1" d="M603.26 139.88c-17.59 63.83-74.61 117.25-139.4 130.87-2.15-6.32-2.51-14.24-4.66-20.56 29.49-9.64 55.33-30.03 71.57-56.47s22.73-58.71 18-89.37c11.11-3.07 23.83-.64 32.69 6.74s15.09 17.35 21.16 27.15c1.35-.51-.73 2.14.64 1.64z"/>
  <path class="st5" d="M633.86 580.14l-35.22 18.85h67.64l-14.59-24.75z"/>
  <circle class="st5" cx="295.51" cy="117.88" r="85.36"/>
  <circle class="st1" cx="295.51" cy="118.11" r="55.16"/>
  <circle class="st4" cx="295.51" cy="118.11" r="33.37"/>
  <g>
    <path class="st4" d="M105.06 212.07c71.34-.32 142.68-.56 214.02-.71-3.8-17.32-26.54-27.27-41.84-18.31-.23-15.7-6.01-31.58-17.25-42.54s-28.16-16.36-43.32-12.28-27.49 18.29-27.81 33.99c-10.6-4.82-21.83-9.74-33.42-8.63-11.59 1.11-23.25 10.69-22.2 22.29-6.93-6.26-18.68-6.18-25.53.17-6.85 6.35-7.82 18.05-2.11 25.44"/>
  </g>
  <g>
    <path d="M595.05 204.75c59.34-.26 118.68-.46 178.03-.59-3.16-14.41-22.08-22.69-34.81-15.23-.19-13.06-5-26.27-14.35-35.38-9.35-9.11-23.42-13.61-36.03-10.21-12.61 3.39-22.87 15.21-23.14 28.27-8.82-4.01-18.16-8.1-27.8-7.18-9.64.92-19.34 8.89-18.47 18.54-5.77-5.21-15.54-5.14-21.24.14-5.7 5.28-6.51 15.01-1.76 21.16" fill="#e4f9f2"/>
  </g>
  <path class="st2" d="M28.98 606.99h297.87c9.15-24.91-11.49-38.37-31.59-42.05-16.15-2.95-14.82-20.96-25.08-33.94-4.05-5.12-8.82-9.94-14.83-12.38-6.01-2.44-13.5-2.05-18.28 2.37-2.75 2.54-4.35 6.09-6.65 9.06-9.87 12.73-30.26 11.39-43.46 2.26s-21.47-23.7-31.03-36.67c-14.03-19.03-31.59-35.32-51.27-48.21-7.01-4.59-14.79-8.9-23.14-8.65-10.52.31-19.85 8.15-24.27 17.82-4.42 9.67-4.6 20.84-2.97 31.37 1.47 9.51 4.24 19.77-.08 28.35-7.91 15.68-31.7 13.03-44.89 24.51C-2.27 550.91-2.36 570 5.24 583.42c5.59 9.85 14.28 17.27 23.74 23.57z"/>
  <path class="st5" d="M520.86 576.04l-38.01 21.95h67.64l-8.34-21.34z"/>
</svg>
