<svg xmlns="http://www.w3.org/2000/svg" width="155.91" height="128.17" viewBox="0 0 155.91 128.17" overflow="visible">
  <style>
    path {
      fill: white;
    }
  </style>
  <path class="st0" d="M104.92 128.17c-.4 0-.8-.11-1.16-.35a167.378 167.378 0 0 0-27.97-15.22c-14.55-6.16-26.73-8.69-31.32-9.65l-.26-.06c-13.69-2.58-27.83-3.35-41.99-2.27-1.16.09-2.13-.77-2.22-1.9a2.07 2.07 0 0 1 1.9-2.22c14.51-1.1 29.02-.32 43.11 2.34l.3.06c4.69.98 17.16 3.57 32.09 9.89a171.33 171.33 0 0 1 28.67 15.6c.95.64 1.19 1.92.56 2.87-.39.6-1.05.91-1.71.91z"/>
  <path class="st0" d="M104.92 114.69c-.4 0-.8-.11-1.16-.35a167.378 167.378 0 0 0-27.97-15.22c-14.55-6.15-26.73-8.69-31.31-9.64l-.27-.06c-13.69-2.58-27.83-3.35-41.99-2.27a2.065 2.065 0 1 1-.32-4.12c14.52-1.1 29.02-.32 43.11 2.34l.31.06c4.69.98 17.16 3.57 32.08 9.89 10.03 4.27 19.67 9.52 28.67 15.6.95.64 1.19 1.92.56 2.87-.39.58-1.05.9-1.71.9z"/>
  <path class="st0" d="M104.92 101.21c-.4 0-.8-.11-1.16-.35A166.24 166.24 0 0 0 75.8 85.64c-14.55-6.16-26.73-8.69-31.32-9.65l-.26-.06c-13.69-2.58-27.83-3.35-41.99-2.27a2.065 2.065 0 1 1-.32-4.12c14.51-1.1 29.02-.32 43.11 2.34l.3.06c4.69.98 17.16 3.57 32.09 9.89a171.33 171.33 0 0 1 28.67 15.6c.95.64 1.19 1.92.56 2.87-.4.59-1.06.91-1.72.91zM32.69 63.46c-5.59 0-9.96-6.49-9.96-14.78s4.38-14.78 9.96-14.78 9.96 6.49 9.96 14.78-4.37 14.78-9.96 14.78zm0-25.43c-2.76 0-5.83 4.37-5.83 10.65s3.07 10.65 5.83 10.65 5.83-4.37 5.83-10.65-3.07-10.65-5.83-10.65zM57.73 69.24c-5.59 0-9.96-6.49-9.96-14.78s4.38-14.78 9.96-14.78 9.96 6.49 9.96 14.78-4.37 14.78-9.96 14.78zm0-25.43c-2.76 0-5.83 4.37-5.83 10.65s3.07 10.65 5.83 10.65 5.83-4.37 5.83-10.65-3.07-10.65-5.83-10.65z"/>
  <path class="st0" d="M32.69 74.24c-1.14 0-2.07-.93-2.07-2.07V61.58c0-1.14.93-2.07 2.07-2.07s2.07.93 2.07 2.07v10.59c0 1.15-.93 2.07-2.07 2.07zM57.73 79.25c-1.14 0-2.07-.93-2.07-2.07v-9.82c0-1.14.93-2.07 2.07-2.07 1.14 0 2.07.93 2.07 2.07v9.82c0 1.15-.93 2.07-2.07 2.07zM119.56 51.13c-8.36 0-15.16-6.8-15.16-15.16s6.8-15.16 15.16-15.16 15.16 6.8 15.16 15.16-6.8 15.16-15.16 15.16zm0-26.19c-6.08 0-11.03 4.95-11.03 11.03S113.48 47 119.56 47c6.08 0 11.03-4.95 11.03-11.03s-4.95-11.03-11.03-11.03zM105.69 24.17c-.53 0-1.06-.2-1.46-.61L94.22 13.54c-.81-.81-.81-2.12 0-2.92.81-.81 2.12-.81 2.92 0l10.01 10.02c.81.81.81 2.12 0 2.92-.4.4-.93.61-1.46.61zM143.83 62.3c-.53 0-1.06-.2-1.46-.61l-10.01-10.02c-.81-.81-.81-2.12 0-2.92.81-.81 2.12-.81 2.92 0l10.01 10.02c.81.81.81 2.12 0 2.92-.4.41-.93.61-1.46.61zM119.75 18.39c-1.14 0-2.07-.93-2.07-2.07V2.07c0-1.14.93-2.07 2.07-2.07s2.07.93 2.07 2.07v14.25c0 1.14-.93 2.07-2.07 2.07zM119.95 72.32c-1.13 0-2.05-.91-2.07-2.04l-.19-14.25c-.01-1.14.9-2.08 2.04-2.09 1.17.04 2.08.9 2.1 2.04l.19 14.25c.01 1.14-.9 2.08-2.04 2.09h-.03zM99.91 38.23H85.85c-1.14 0-2.07-.93-2.07-2.07 0-1.14.93-2.07 2.07-2.07h14.06c1.14 0 2.07.93 2.07 2.07 0 1.14-.92 2.07-2.07 2.07zM153.84 38.23h-14.06c-1.14 0-2.07-.93-2.07-2.07 0-1.14.93-2.07 2.07-2.07h14.06c1.14 0 2.07.93 2.07 2.07 0 1.14-.92 2.07-2.07 2.07zM95.68 62.3c-.53 0-1.06-.2-1.46-.61-.81-.81-.81-2.12 0-2.92l10.01-10.02c.81-.81 2.12-.81 2.92 0 .81.81.81 2.12 0 2.92L97.14 61.7c-.41.4-.93.6-1.46.6zM133.81 24.17c-.53 0-1.06-.2-1.46-.61-.81-.81-.81-2.12 0-2.92l10.01-10.02c.81-.81 2.12-.81 2.92 0 .81.81.81 2.12 0 2.92l-10.01 10.02c-.4.4-.93.61-1.46.61z"/>
</svg>
