<svg xmlns="http://www.w3.org/2000/svg" width="152.99" height="122.48" viewBox="0 0 152.99 122.48" overflow="visible">
  <style>
    .white-path {
      fill: white;
    }
  </style>
  <path class="white-path" d="M89.2 29.99a2.1 2.1 0 0 0 2.1-2.1c0-4.42 3.6-8.02 8.02-8.02.68 0 1.39.12 2.25.37a2.097 2.097 0 0 0 2.64-2.44c-.16-.76-.24-1.54-.24-2.31 0-6.24 5.08-11.32 11.32-11.32s11.31 5.08 11.31 11.32l-.03.5c-.04.93.54 1.77 1.41 2.07 3.25 1.12 5.43 4.15 5.43 7.54 0 1.16.94 2.1 2.1 2.1h15.39a2.1 2.1 0 1 0 0-4.2h-13.48c-.67-3.81-3.14-7.1-6.65-8.82C130.35 6.53 123.56 0 115.28 0c-8.55 0-15.51 6.96-15.51 15.51v.19c-6.86-.28-12.67 5.31-12.67 12.2 0 1.16.94 2.09 2.1 2.09zM50.95 57.98H33.7a2.1 2.1 0 0 0-2.1 2.1v17.26c0 1.16.94 2.1 2.1 2.1h17.26a2.1 2.1 0 0 0 2.1-2.1V60.07a2.113 2.113 0 0 0-2.11-2.09zm-2.09 17.25H35.79V62.17h13.07v13.06zM80.84 57.98H63.58a2.1 2.1 0 0 0-2.1 2.1v17.26c0 1.16.94 2.1 2.1 2.1h17.26a2.1 2.1 0 0 0 2.1-2.1V60.07c0-1.15-.94-2.09-2.1-2.09zm-2.1 17.25H65.68V62.17h13.07v13.06zM50.95 86.44H33.7a2.1 2.1 0 0 0-2.1 2.1v17.26c0 1.16.94 2.1 2.1 2.1h17.26a2.1 2.1 0 0 0 2.1-2.1V88.54c-.01-1.16-.95-2.1-2.11-2.1zm-2.09 17.26H35.79V90.63h13.07v13.07zM80.84 86.44H63.58a2.1 2.1 0 0 0-2.1 2.1v17.26c0 1.16.94 2.1 2.1 2.1h17.26a2.1 2.1 0 0 0 2.1-2.1V88.54a2.1 2.1 0 0 0-2.1-2.1zm-2.1 17.26H65.68V90.63h13.07v13.07z"/>
  <path class="white-path" d="M97.01 118.29h-.53V54.96l2.71 2.38c.4.35.89.52 1.38.52.58 0 1.16-.24 1.57-.71.77-.87.68-2.19-.19-2.96L75.35 30.8l-4.19-3.68-12.51-10.99c-.79-.7-1.98-.7-2.77 0l-43.3 38.06c-.87.76-.96 2.09-.19 2.96.76.87 2.09.95 2.96.19l2.71-2.38v63.33H2.1a2.1 2.1 0 1 0 0 4.2h111.84a2.1 2.1 0 1 0 0-4.2H101.2M22.24 51.27l35.03-30.78L92.3 51.27v67.01H22.24V51.27z"/>
</svg>
