<svg xmlns="http://www.w3.org/2000/svg" width="124.05" height="126.53" viewBox="0 0 124.05 126.53" overflow="visible">
  <style>
    .white-path {
      fill: white;
    }
  </style>
  <path class="white-path" d="M1.92 118.83h93.79c1.06 0 1.92-.86 1.92-1.92v-6.08l10.04 12.05c1.99 2.39 4.82 3.64 7.61 3.64 2.02 0 4.01-.66 5.63-2.01 3.87-3.22 4.22-9.19.78-13.31l-6.48-7.78-4.73-5.68c-.32-.39-.79-.64-1.3-.68-.5-.03-1.01.11-1.4.44l-3.97 3.3-3.09-3.71c4.51-4.35 7.3-10.09 7.88-16.4.63-6.95-1.48-13.72-5.95-19.08-1.5-1.8-3.2-3.31-5.02-4.6V1.92C97.63.86 96.77 0 95.71 0H1.92C.86 0 0 .86 0 1.92v115c0 1.05.86 1.91 1.92 1.91zm116.53 2.74c-2.24 1.87-5.76 1.36-7.84-1.14l-5.26-6.31 8.13-6.78 5.26 6.31c2.08 2.5 1.95 6.05-.29 7.92zm-9.69-19.9l2.28 2.73-8.13 6.78-2.28-2.73 4.17-3.47 3.96-3.31zm-11.14 4.29v-6.29l.15-.12 3.09 3.7-3.24 2.71zm2.08-41.89c3.81 4.57 5.61 10.35 5.07 16.28-.54 5.93-3.35 11.29-7.93 15.1-4.57 3.81-10.35 5.61-16.28 5.07-5.93-.54-11.29-3.35-15.1-7.93-7.86-9.44-6.58-23.51 2.85-31.38 9.45-7.86 23.53-6.58 31.39 2.86zM3.83 3.83h89.96v50.94c-8.92-4.22-19.86-3.22-27.92 3.49a26.02 26.02 0 00-6.2 7.59H16.95a1.92 1.92 0 000 3.84h41.03c-1.26 3.6-1.74 7.42-1.37 11.21H16.95a1.92 1.92 0 000 3.84H57.3c.92 3.68 2.64 7.21 5.22 10.32.26.32.56.6.83.91h-46.4a1.92 1.92 0 000 3.84h50.31c.13 0 .24-.05.37-.07 3.69 2.59 7.99 4.2 12.6 4.62.81.07 1.61.11 2.41.11 3.9 0 7.69-.87 11.16-2.53V115H3.83V3.83z"/><path class="st0" d="M21.39 56.05h27.08c1.06 0 1.92-.86 1.92-1.92V44.6c0-6.98-4.91-12.71-11.44-13.4h-.02c-.04 0-.08-.01-.13-.02-.1-.01-.19.02-.28.03-.13.01-.26.01-.39.04s-.24.1-.36.16c-.1.05-.2.09-.29.16-.12.09-.21.2-.3.31-.05.06-.13.11-.17.18-1.32 2.09-3.6 3.33-6.1 3.33s-4.77-1.25-6.1-3.33c-.04-.07-.11-.1-.15-.16-.1-.12-.2-.24-.33-.34-.08-.06-.17-.1-.26-.14-.12-.07-.24-.13-.38-.17-.13-.03-.26-.03-.39-.04-.1-.01-.18-.04-.28-.03-.04 0-.08.01-.13.02h-.02c-6.53.69-11.44 6.42-11.44 13.4v9.53c0 1.06.86 1.92 1.92 1.92h8.04zM15.27 44.6c0-4.58 3.05-8.49 7.1-9.4 2.08 2.54 5.19 4.03 8.55 4.03s6.47-1.49 8.55-4.03c4.05.91 7.1 4.82 7.1 9.4v7.61h-4.2v-7.4a1.92 1.92 0 00-3.84 0v7.4H23.31v-7.4a1.92 1.92 0 00-3.84 0v7.4h-4.2V44.6zM30.91 29.68c5.87 0 10.65-4.78 10.65-10.65S36.78 8.39 30.91 8.39s-10.65 4.78-10.65 10.65 4.78 10.64 10.65 10.64zm0-17.46c3.76 0 6.81 3.06 6.81 6.81 0 3.76-3.06 6.81-6.81 6.81s-6.81-3.06-6.81-6.81c0-3.75 3.06-6.81 6.81-6.81zM76.12 62.91c.29 1.02 1.35 1.6 2.37 1.31 5.61-1.62 11.64.23 15.37 4.71.38.45.92.69 1.47.69.43 0 .87-.15 1.23-.44.81-.68.92-1.89.25-2.7a18.516 18.516 0 00-19.38-5.93c-1.02.28-1.6 1.35-1.31 2.36z"/></svg>