<svg xmlns="http://www.w3.org/2000/svg" width="130.83" height="130.83" viewBox="0 0 130.83 130.83" overflow="visible">
  <path d="M1.64 23.41c.9 0 1.64-.73 1.64-1.64a6.27 6.27 0 0 1 6.26-6.26c.53 0 1.09.09 1.76.29.55.16 1.15.02 1.57-.37.42-.39.61-.97.5-1.53-.12-.59-.19-1.2-.19-1.8 0-4.87 3.96-8.83 8.83-8.83s8.83 3.96 8.83 8.83l-.02.39c-.03.72.42 1.38 1.1 1.61 2.53.87 4.24 3.24 4.24 5.89 0 .9.73 1.64 1.64 1.64h12.01a1.641 1.641 0 0 0 0-3.28H39.27a9.506 9.506 0 0 0-5.19-6.88C33.75 5.09 28.45 0 21.99 0c-6.67 0-12.1 5.43-12.1 12.1v.15C4.53 12.04 0 16.4 0 21.77c0 .91.73 1.64 1.64 1.64zM82.85 48.17V34.7c0-.9-.73-1.64-1.64-1.64H67.74c-.9 0-1.64.73-1.64 1.64v13.47c0 .9.73 1.64 1.64 1.64h13.47c.91 0 1.64-.74 1.64-1.64zm-3.27-1.63h-10.2v-10.2h10.2v10.2zM91.07 49.81h13.47c.9 0 1.64-.73 1.64-1.64V34.7c0-.9-.73-1.64-1.64-1.64H91.07c-.9 0-1.64.73-1.64 1.64v13.47c0 .9.73 1.64 1.64 1.64zm1.63-13.47h10.2v10.2H92.7v-10.2zM91.07 72.02h13.47c.9 0 1.64-.73 1.64-1.64V56.92c0-.9-.73-1.64-1.64-1.64H91.07c-.9 0-1.64.73-1.64 1.64v13.47c0 .9.73 1.63 1.64 1.63zm1.63-13.47h10.2v10.2H92.7v-10.2zM91.07 94.24h13.47c.9 0 1.64-.73 1.64-1.64V79.13c0-.9-.73-1.64-1.64-1.64H91.07c-.9 0-1.64.73-1.64 1.64V92.6c0 .9.73 1.64 1.64 1.64zm1.63-13.47h10.2v10.2H92.7v-10.2zM91.07 116.45h13.47c.9 0 1.64-.73 1.64-1.64v-13.47c0-.9-.73-1.64-1.64-1.64H91.07c-.9 0-1.64.73-1.64 1.64v13.47c0 .91.73 1.64 1.64 1.64zm1.63-13.47h10.2v10.2H92.7v-10.2zM39.77 80.49H26.3c-.9 0-1.64.73-1.64 1.64V95.6c0 .9.73 1.64 1.64 1.64h13.47c.9 0 1.64-.73 1.64-1.64V82.13c-.01-.9-.74-1.64-1.64-1.64zm-1.64 13.47h-10.2v-10.2h10.2v10.2zM63.09 80.49H49.62c-.9 0-1.64.73-1.64 1.64V95.6c0 .9.73 1.64 1.64 1.64h13.47c.9 0 1.64-.73 1.64-1.64V82.13c-.01-.9-.74-1.64-1.64-1.64zm-1.64 13.47h-10.2v-10.2h10.2v10.2zM39.77 102.71H26.3c-.9 0-1.64.73-1.64 1.64v13.47c0 .9.73 1.64 1.64 1.64h13.47c.9 0 1.64-.73 1.64-1.64v-13.47c-.01-.91-.74-1.64-1.64-1.64zm-1.64 13.47h-10.2v-10.2h10.2v10.2zM63.09 102.71H49.62c-.9 0-1.64.73-1.64 1.64v13.47c0 .9.73 1.64 1.64 1.64h13.47c.9 0 1.64-.73 1.64-1.64v-13.47c-.01-.91-.74-1.64-1.64-1.64zm-1.64 13.47h-10.2v-10.2h10.2v10.2z"/>
  <path d="M1.64 130.83H129.2a1.641 1.641 0 0 0 0-3.28h-12.45V30.71l2.11 1.86c.31.27.7.41 1.08.41.45 0 .91-.19 1.23-.56.6-.68.53-1.71-.15-2.31L87.22.41c-.62-.54-1.54-.54-2.16 0l-33.8 29.7c-.68.6-.75 1.63-.15 2.31.6.68 1.63.75 2.31.15l2.11-1.86v25.7l-9.76-8.58c-.62-.54-1.54-.54-2.16 0l-33.8 29.7c-.68.6-.75 1.63-.15 2.31.59.68 1.63.74 2.31.15l2.11-1.86v49.42H1.64a1.641 1.641 0 0 0 0 3.28zM58.8 27.84L86.14 3.81l27.34 24.02v99.72H75.3V78.14L77.41 80c.31.27.7.41 1.08.41.45 0 .91-.19 1.23-.56.6-.68.53-1.71-.15-2.31L58.8 59.29V27.84zM17.36 75.26L44.7 51.24l27.34 24.02v52.3H17.36v-52.3z"/>
</svg>
