<svg xmlns="http://www.w3.org/2000/svg" width="49.18" height="34.27" viewBox="0 0 49.18 34.27" overflow="visible">
  <path class="st0" d="M5.09.498C2.54.498.5 2.638.5 5.208v23.82c0 2.57 2.04 4.73 4.59 4.73h39c2.55 0 4.59-2.16 4.59-4.73V5.208c0-2.57-2.04-4.71-4.59-4.71h-39zm0 2.3h39c.34 0 .66.08.95.22l-18.96 17.55c-.88.81-2.04.81-2.92 0l-19-17.55c.28-.14.6-.22.93-.22zm-2.26 2.11l13.46 12.44-13.21 12.85c-.17-.34-.29-.73-.29-1.17V5.208c0-.1.03-.2.04-.3zm43.52.02c.01.1.04.19.04.29v23.82c0 .42-.1.81-.27 1.15l-13.17-12.85 13.4-12.41zm-15.07 13.94l12.89 12.6H5.05l12.94-12.58 3.62 3.35a4.462 4.462 0 0 0 6.04 0l3.63-3.37z"/>
  <path class="st0" d="M44.09 34.268h-39c-2.81 0-5.09-2.35-5.09-5.23V5.218C0 2.338 2.28.008 5.09.008h39c2.81 0 5.09 2.34 5.09 5.21v23.82c0 2.88-2.28 5.23-5.09 5.23zM5.09.998C2.84.998 1 2.888 1 5.208v23.82c0 2.33 1.83 4.23 4.09 4.23h39c2.25 0 4.09-1.9 4.09-4.23V5.208c0-2.32-1.83-4.21-4.09-4.21h-39zm40.3 30.98H3.86l.83-.86 13.28-12.91 3.97 3.67a3.966 3.966 0 0 0 5.36 0l3.99-3.69 14.1 13.79zm-27.4-12.4l-11.72 11.4h36.67l-11.67-11.41-3.29 3.05c-1.88 1.74-4.83 1.74-6.72 0l-3.27-3.04zM2.94 31.038l-.31-.61c-.23-.45-.34-.91-.34-1.39V5.218c0-.09.01-.19.03-.28l.11-.99.74.59 13.85 12.8-14.08 13.7zm.35-25.02v23.02c0 .08 0 .16.02.25l12.26-11.92L3.29 6.018zm42.97 25.01l-14.04-13.7 14.53-13.44.11 1.07c.01.09.03.17.03.26v23.82c0 .48-.11.94-.32 1.37l-.31.62zm-12.59-13.69l12.21 11.91c.01-.07.01-.14.01-.21v-23l-12.22 11.3zm-9.05 4.33c-.63 0-1.26-.25-1.8-.75L3.26 2.868l.69-.31c.38-.17.76-.26 1.14-.26h39c.39 0 .79.09 1.16.26l.68.31-19.51 18.06c-.54.5-1.17.74-1.8.74zM5.2 3.298l18.29 16.9c.68.63 1.56.63 2.24 0L44 3.298H5.2z"/>
</svg>
