<svg xmlns="http://www.w3.org/2000/svg" width="60.15" height="53" viewBox="0 0 60.15 53" overflow="visible">
  <style>
    .st0{fill:#efa240}
  </style>
  <path class="st0" d="M58.99 53c-.22 0-.45-.06-.65-.2a94.516 94.516 0 0 0-15.72-8.56 92.108 92.108 0 0 0-17.61-5.42l-.15-.03c-7.7-1.45-15.65-1.88-23.61-1.28-.65.06-1.2-.43-1.25-1.06-.05-.64.43-1.2 1.07-1.25 8.16-.62 16.32-.18 24.24 1.32l.17.04c2.64.55 9.65 2.01 18.04 5.56 5.64 2.4 11.06 5.35 16.12 8.77.53.36.67 1.08.31 1.61-.22.33-.59.5-.96.5z"/>
  <path class="st0" d="M58.99 45.42c-.22 0-.45-.06-.65-.2a94.85 94.85 0 0 0-15.72-8.56 92.3 92.3 0 0 0-17.6-5.42l-.15-.03c-7.7-1.45-15.65-1.88-23.61-1.28a1.164 1.164 0 0 1-.19-2.32c8.16-.62 16.32-.18 24.24 1.32l.17.04c2.64.55 9.65 2.01 18.04 5.56 5.64 2.4 11.06 5.35 16.12 8.77.53.36.67 1.08.31 1.61-.22.34-.59.51-.96.51z"/>
  <path class="st0" d="M58.99 37.84c-.22 0-.45-.06-.65-.2a94.516 94.516 0 0 0-15.72-8.56 92.108 92.108 0 0 0-17.61-5.42l-.15-.03c-7.7-1.45-15.65-1.88-23.61-1.28a1.164 1.164 0 0 1-.18-2.32c8.16-.62 16.32-.18 24.24 1.32l.17.04c2.64.55 9.65 2.01 18.04 5.56 5.64 2.4 11.06 5.35 16.12 8.77a1.159 1.159 0 0 1-.65 2.12zM18.38 16.62c-3.14 0-5.6-3.65-5.6-8.31S15.24 0 18.38 0s5.6 3.65 5.6 8.31-2.46 8.31-5.6 8.31zm0-14.3c-1.55 0-3.28 2.46-3.28 5.99s1.73 5.99 3.28 5.99 3.28-2.46 3.28-5.99-1.73-5.99-3.28-5.99zM32.46 19.87c-3.14 0-5.6-3.65-5.6-8.31s2.46-8.31 5.6-8.31 5.6 3.65 5.6 8.31-2.46 8.31-5.6 8.31zm0-14.3c-1.55 0-3.28 2.46-3.28 5.99s1.73 5.99 3.28 5.99c1.55 0 3.28-2.46 3.28-5.99s-1.73-5.99-3.28-5.99z"/>
  <path class="st0" d="M18.38 22.68c-.64 0-1.16-.52-1.16-1.16v-5.96a1.16 1.16 0 0 1 2.32 0v5.96c0 .64-.52 1.16-1.16 1.16zM32.46 25.5c-.64 0-1.16-.52-1.16-1.16v-5.52a1.16 1.16 0 0 1 2.32 0v5.52c0 .64-.52 1.16-1.16 1.16z"/>
</svg>
