<svg xmlns="http://www.w3.org/2000/svg" width="898.73" height="948.57" viewBox="0 0 898.73 948.57" overflow="visible"><style>.st1{fill:#ed7058}.st2{fill:#ed78aa}.st3{fill:#efa240}.st4{fill:#afdbc9}.st5{fill:#3a385f}.st6{fill:#fff}.st7{fill:#ebf0e7}</style><path d="M576.61 225.84c-287.95-75-284.69-83.07-460.15 212.1-217.77 366.35 121.3 578.42 393.1 378.94.01 0 739.71-415.84 67.05-591.04z" fill="#fcf3e8"/><path class="st1" d="M408.68 738.99h197.48v209.29H408.68z"/><path class="st2" d="M408.63 734.35h201.76v17.27H408.63z"/><path class="st3" d="M605.99 806.06h109.8v142.21h-109.8z"/><path class="st4" d="M605.99 802.4h109.8v10.97h-109.8z"/><path class="st5" d="M716.18 845.79h109.8v102.49h-109.8z"/><path class="st6" d="M716.18 840.78h109.8v10.96h-109.8z"/><path class="st5" d="M436.32 79.01c9.44 6.04 7.98-3.13 12.18 0 4.2 3.13 9.42-12.19 14.06-10.32 5.75 2.32 11.97.86 17.86-.8s7.71 6.72 13.77 6.05c9.14-1.02 15.68-.33 15.77 7.46 2.4.45 5.22 5.08 6.57 7.77 3.05 6.09-5.91 7.61-4.06 10.15 8.12 11.17-8.05 17.08-4.06 26.4 3.05 7.11-17.26 13.2-22.34 6.09 1.98-6.06-1.66-10.41-3.21-16.67-1.1-4.42-4.01-8-7.48-9.2-3.47-1.19-9.74-2.08-12.39 1.05-12.36.92-22.74-3.81-28.7-17.82-.01-.01-6.28-15.48 2.03-10.16z"/><path class="st4" d="M371.24 541.27c3.35 5.01 1.61 12.12-2.39 16.63s-9.73 7.02-15.28 9.37-11.29 4.81-15.36 9.25-5.99 11.48-2.8 16.59c21.63-4.54 42.14-8.25 63.54-13.78 1.3-12.67-.2-26.75-4.66-38.68-8.61-3.25-14.04-1.24-23.05.62zM703.41 669.29c5.84 1.5 9.28 7.95 9.31 13.98s-2.56 11.72-5.12 17.17c-2.56 5.46-5.2 11.12-5.27 17.14s3.2 12.54 8.98 14.23c13.08-17.81 25.89-34.26 38.13-52.66-7.49-10.3-18-19.79-29.28-25.71-8.58 3.32-11.29 8.45-16.75 15.85zM655.49 320.04c1.61 1.79-.01 6.39-2.16 9.88-2.15 3.48-4.91 6.79-6.27 10.46-1.36 3.67-.14 7.54 2.84 5.84-2.63 4.6-.94 11.32 2.3 11.74 3.24.42 7.74-2.8 10.94-7.02 3.2-4.22 5.25-9.23 6.59-13.94 3.55-12.53 2.45-24.11-2.91-30.54-4.04 2.83-8.63 8.72-11.33 13.58zM266.74 224.27c-2.35.54-5.59-3.1-7.6-6.67s-3.57-7.58-6.12-10.55c-2.55-2.97-6.53-3.77-6.49-.34-2.76-4.53-9.45-6.3-11.39-3.67-1.94 2.63-1.3 8.13.85 12.97s5.53 9.06 9.01 12.51c9.25 9.17 19.91 13.81 28.14 12.24-.52-4.91-3.45-11.77-6.4-16.49z"/><path class="st3" d="M473.92 184.7c-7.11 8.47-1.32 21.4 9.72 21.87 19.63.83 39.21 2.66 58.35 7.01 26.69 6.05 52.68 17.26 72.93 35.66 20.25 18.4 34.27 44.54 34.62 71.9 7.83-.52 17.84-4.35 23.4-9.9 1-39.87-18.79-81.56-48.35-108.33-29.56-26.77-67.36-42.95-105.94-53.05-10.98 6.63-23.31 14.83-33.12 23.1-3.91 3.29-7.91 7.33-11.61 11.74z"/><path class="st5" d="M500.3 307.45c.69 50.65 4.48 101.54 16.72 150.7 12.24 49.15 33.25 96.69 65.66 135.62S659.45 662.6 709.03 673c8.11-4.94 13.67-9.45 16.85-18.39-54.88-32.48-98.34-81.87-121.17-141.42-22.83-59.55-24.92-126.83-5.82-187.68-31.47-12.9-64.93-22.98-98.59-18.06z"/><path class="st5" d="M592.28 315.95c-7.62-14.46-30.22-11.83-45.11-5.08-8.94 4.06-16.69 10.11-23.78 16.96-36.53 5.16-73.07 10.33-109.6 15.49-17.77 2.51-36.72 5.56-49.91 17.72-14.37 13.24-18.46 34.15-19.62 53.65-2.7 45.56 6.51 91.77 26.46 132.82h27.97c.65-40.38.31-83.28.97-123.66 17.95.25 36.11-1.63 53.92-5.44 31.69-1.72 63.07-9.46 91.81-22.93 15.63-7.33 30.93-16.69 41.01-30.71 10.07-14.02 13.93-33.55 5.88-48.82z"/><path class="st3" d="M484.63 175.19c-1.76-10.92-15.32-15-22.9-6.95-13.47 14.31-27.66 27.92-43.46 39.55-22.03 16.23-47.51 28.56-74.68 31.84-27.17 3.28-56.11-3.21-77.03-20.84-4.73 6.27-8.38 16.35-7.81 24.18 29.5 26.83 73.99 39.13 113.57 34.29 39.58-4.85 76.55-22.86 109.42-45.44 2.17-12.64 4.03-27.34 4.19-40.17.05-5.11-.39-10.77-1.3-16.46z"/><path class="st3" d="M604.56 333.81c3.89-46.57-6.43-94.22-29.25-135-13.17-23.54-32.68-46.23-59.17-51.36-27.69-5.36-57.96 12.72-66.37 39.64-6.83 21.86-.25 45.46 7.15 67.14a873.354 873.354 0 0 0 29.87 75.67c40.45 7.42 77.01 9.29 117.77 3.91z"/><path class="st6" d="M522.69 335.06c-22.99-59.64-28.71-125.85-16.28-188.56-10.34-.04-20.63 2.89-29.66 8.05-11.03 58-7.36 119.68 11.55 175.6 11.71 2.13 23.11 3.78 34.39 4.91z"/><path class="st4" d="M466 141.7c4.78 5.26 11.22 13.27 16 18.52 8.22-.09 10.85-9.65 18.27-13.2-4.1-6.24-6.28-8.62-10.38-14.87-8.45-.78-17.5 3.96-23.89 9.55z"/><path class="st4" d="M447.37 92.02c-1.95 17.49 1.39 35.54 9.47 51.17 10.3.42 21.84.06 30.57-5.41s15.44-14.51 16.97-24.7c2.15-14.34-7.17-29.56-20.93-34.16-13.75-4.6-34.47-1.31-36.08 13.1z"/><path class="st5" d="M485.01 106.98c-2.97-1.8-5.69-4.3-7.25-7.4-12.44 4.18-26.03 1.09-38.39-3.31 4.1-11.06 12.81-19.23 23.93-23.17 11.12-3.95 24.13-2.4 33.78 4.39 9.65 6.78 15.56 18.72 14.69 30.49-.87 11.77-8.9 22.77-19.83 27.22-2.01-1.91-3.05-4.92-3.54-7.65 4.55-3.95 7.46-9.74 7.91-15.76.1-1.37.07-2.79-.5-4.03-.57-1.25-1.79-2.28-3.16-2.26-1.92.02-3.24 1.91-3.98 3.67"/><path class="st4" d="M166.53 655.51h153.34v293.06H166.53z"/><path class="st6" d="M219.94 666.73c-5.55 0-10.06 4.5-10.06 10.06v25.4H230v-25.4c0-5.55-4.5-10.06-10.06-10.06zM265.63 666.73c-5.55 0-10.06 4.5-10.06 10.06v25.4h20.12v-25.4c0-5.55-4.51-10.06-10.06-10.06zM219.94 730.41c-5.55 0-10.06 4.51-10.06 10.06v25.4H230v-25.4c0-5.55-4.5-10.06-10.06-10.06zM265.63 730.41c-5.55 0-10.06 4.51-10.06 10.06v25.4h20.12v-25.4c0-5.55-4.51-10.06-10.06-10.06zM219.94 794.09c-5.55 0-10.06 4.5-10.06 10.06v25.4H230v-25.4c0-5.56-4.5-10.06-10.06-10.06zM265.63 794.09c-5.55 0-10.06 4.5-10.06 10.06v25.4h20.12v-25.4c0-5.56-4.51-10.06-10.06-10.06zM219.94 857.77c-5.55 0-10.06 4.51-10.06 10.06v25.4H230v-25.4c0-5.56-4.5-10.06-10.06-10.06zM265.63 857.77c-5.55 0-10.06 4.51-10.06 10.06v25.4h20.12v-25.4c0-5.56-4.51-10.06-10.06-10.06zM205.06 702.19h30.11v6.61h-30.11zM250.75 702.19h30.1v6.61h-30.1zM205.06 765.87h30.11v6.61h-30.11zM250.75 765.87h30.1v6.61h-30.1zM205.06 829.55h30.11v6.61h-30.11zM250.75 829.55h30.1v6.61h-30.1zM205.06 893.23h30.11v6.61h-30.11zM250.75 893.23h30.1v6.61h-30.1z"/><path class="st5" d="M166.49 644.26H319.9v11.25H166.49zM166.49 638.39H319.9v5.87H166.49z"/><path class="st3" d="M319.88 652.89h88.75v11h-88.75z"/><path class="st5" d="M319.88 663.57h88.75v284.71h-88.75z"/><path class="st6" d="M358.04 700.98h15.09v44.51h-15.09z"/><path class="st4" d="M353.15 696.74h24.88v4.24h-24.88z"/><path class="st6" d="M358.04 783.13h15.09v44.51h-15.09z"/><path class="st4" d="M353.15 778.9h24.88v4.23h-24.88z"/><path class="st6" d="M358.04 866.25h15.09v44.51h-15.09z"/><path class="st4" d="M353.15 862.02h24.88v4.23h-24.88z"/><path class="st7" d="M477.46 786.3c-7.15 0-12.95 5.8-12.95 12.95v32.71h25.91v-32.71c0-7.15-5.8-12.95-12.96-12.95zM536.3 786.3c-7.15 0-12.95 5.8-12.95 12.95v32.71h25.91v-32.71c-.01-7.15-5.81-12.95-12.96-12.95zM477.46 859.56c-7.15 0-12.95 5.8-12.95 12.96v32.71h25.91v-32.71c0-7.16-5.8-12.96-12.96-12.96zM536.3 859.56c-7.15 0-12.95 5.8-12.95 12.96v32.71h25.91v-32.71c-.01-7.16-5.81-12.96-12.96-12.96z"/><path class="st6" d="M639.2 828.28c-5.55 0-10.06 4.51-10.06 10.06v25.4h20.12v-25.4c0-5.56-4.51-10.06-10.06-10.06zM682.13 828.28c-5.55 0-10.06 4.51-10.06 10.06v25.4h20.12v-25.4c0-5.56-4.5-10.06-10.06-10.06zM639.2 882.17c-5.55 0-10.06 4.51-10.06 10.06v25.4h20.12v-25.4c0-5.55-4.51-10.06-10.06-10.06zM682.13 882.17c-5.55 0-10.06 4.51-10.06 10.06v25.4h20.12v-25.4c0-5.55-4.5-10.06-10.06-10.06z"/><g><path class="st6" d="M729.17 867.66h14.87v21.53h-14.87z"/><path class="st4" d="M727.56 864.53h18.41v3.13h-18.41z"/><path class="st6" d="M760.94 867.66h14.87v21.53h-14.87z"/><path class="st4" d="M759.32 864.53h18.41v3.13h-18.41z"/></g><g><path class="st6" d="M729.17 906.02h14.87v21.53h-14.87z"/><path class="st4" d="M727.56 902.89h18.41v3.13h-18.41z"/><path class="st6" d="M760.94 906.02h14.87v21.53h-14.87z"/><path class="st4" d="M759.32 902.89h18.41v3.13h-18.41z"/></g><path class="st2" d="M83.08 948.57h267.7c8.22-22.38-10.33-34.49-28.39-37.79-14.52-2.66-13.32-18.84-22.54-30.5-3.64-4.6-7.93-8.93-13.33-11.13-5.4-2.2-12.13-1.84-16.43 2.13-2.47 2.28-3.91 5.47-5.98 8.14-8.87 11.44-27.19 10.24-39.06 2.03-11.86-8.2-19.3-21.3-27.89-32.96-12.61-17.1-28.39-31.74-46.08-43.33-6.3-4.13-13.29-8-20.8-7.78-9.45.28-17.84 7.32-21.81 16.01-3.97 8.69-4.13 18.73-2.67 28.19 1.32 8.55 3.81 17.77-.07 25.48-7.1 14.1-28.47 11.72-40.33 22.04-10.41 9.06-10.49 26.21-3.66 38.27 5.02 8.87 12.83 15.54 21.34 21.2z"/><g><circle class="st1" cx="95.24" cy="363.03" r="95.24"/><circle class="st3" cx="95.24" cy="363.29" r="61.55"/><circle class="st2" cx="95.24" cy="363.29" r="37.24"/></g><g><path class="st6" d="M87.15 473.96c79.6-.36 159.2-.62 238.8-.8-4.24-19.33-29.61-30.43-46.69-20.43-.26-17.52-6.71-35.24-19.25-47.46-12.55-12.23-31.42-18.25-48.33-13.7s-30.67 20.41-31.03 37.92c-11.83-5.37-24.36-10.87-37.29-9.63-12.94 1.24-25.94 11.93-24.77 24.87-7.74-6.98-20.84-6.9-28.48.19-7.65 7.08-8.73 20.14-2.36 28.39"/></g><g><path d="M598.12 83.9c79.6-.36 159.2-.62 238.8-.8-4.24-19.33-29.61-30.43-46.69-20.43-.26-17.52-6.71-35.24-19.25-47.46-12.55-12.23-31.42-18.25-48.33-13.7-16.92 4.55-30.67 20.41-31.03 37.92-11.83-5.37-24.36-10.87-37.29-9.63-12.94 1.24-25.94 11.93-24.77 24.87-7.74-6.98-20.84-6.9-28.48.19-7.65 7.08-8.73 20.14-2.36 28.39" fill="#e4f9f2"/></g><path class="st4" d="M717.19 588.9c60.51-.27 121.03-.47 181.54-.61-3.22-14.69-22.51-23.13-35.49-15.53-.2-13.32-5.1-26.79-14.64-36.08-9.54-9.29-23.89-13.87-36.75-10.41-12.86 3.46-23.32 15.51-23.59 28.83-9-4.09-18.52-8.26-28.35-7.32-9.83.94-19.72 9.07-18.83 18.91-5.88-5.31-15.84-5.24-21.65.14-5.81 5.38-6.64 15.31-1.79 21.58"/></svg>