<svg xmlns="http://www.w3.org/2000/svg" xmlns:xlink="http://www.w3.org/1999/xlink" width="1071.69" height="927.88" viewBox="0 0 1071.69 927.88" overflow="visible">
  <style>
    .st1,.st2{fill:#3a385f}.st2{stroke:#3a385f;stroke-width:1.6524;stroke-miterlimit:10}.st3{fill:#ebf0e7}.st4{fill:#ed78aa}.st5{stroke:#efa240;stroke-width:3.3048;stroke-miterlimit:10}.st5,.st6{fill:#efa240}.st8{fill:#afdbc9}.st9{fill:#ed7058}.st12{fill:#fff}.st13{fill:none;stroke:#afdbc9;stroke-width:9.1234;stroke-miterlimit:10}
  </style>
  <path d="M968.76 432.21C849.27 59.84 859.97 57.94 430.13 64.61c-533.48 8.27-522.4 531.53-126.53 697.82 0 0 944.29 539.63 665.16-330.22z" fill="#e4f9f2"/>
  <path class="st1" d="M1027.73 531.73H409V680h16.27c8.25-57.39 47.69-100.88 95.1-100.88 46.4 0 85.16 41.66 94.53 97.23l.11.7h17.03l.07-.45c9.29-55.7 48.1-97.48 94.57-97.48 46.72 0 85.7 42.24 94.72 98.39h17.03c8.92-56.32 47.75-98.39 94.57-98.39 46.72 0 85.71 42.24 94.72 98.39V680H1044V531.73h-16.27z"/>
  <path class="st2" d="M481.35 538.12c-18.28 0-33.15-14.87-33.15-33.15s14.87-33.15 33.15-33.15 33.15 14.87 33.15 33.15c-.01 18.28-14.88 33.15-33.15 33.15zm0-62.22c-16.03 0-29.07 13.04-29.07 29.07s13.04 29.07 29.07 29.07 29.07-13.04 29.07-29.07-13.05-29.07-29.07-29.07zM592.85 538.12c-18.28 0-33.15-14.87-33.15-33.15s14.87-33.15 33.15-33.15S626 486.69 626 504.97s-14.87 33.15-33.15 33.15zm0-62.22c-16.03 0-29.07 13.04-29.07 29.07s13.04 29.07 29.07 29.07 29.07-13.04 29.07-29.07-13.04-29.07-29.07-29.07z"/>
  <path class="st3" d="M503.24 433.7h-10.07c-1.04 0-1.65 1.16-1.07 2.01 1.01 1.49 2.68 3.47 4.97 4.78 4.09 2.33 9.01 2.97 9.01 2.97l-2.84-9.76z"/>
  <path class="st4" d="M528.37 427.67s11.65 4.97 17.61 10.66 4.15 12.21 2.8 15.63-12.8 24.62-12.8 24.62l-3.5-13.56 3.47-14.59s-10.63-.54-13.7-3.25c-3.07-2.71-10.78-20.87-5.09-25.47 5.7-4.61 11.21 5.96 11.21 5.96z"/>
  <path class="st5" d="M538.08 506.7h-56.74a1.724 1.724 0 0 1-1.47-2.62l31.14-51.01c.31-.51.87-.83 1.47-.83h65.1c.66 0 1.26.37 1.55.97.29.59.22 1.3-.18 1.82l-39.5 51.01c-.33.41-.83.66-1.37.66zm-53.66-3.45h52.82l36.83-47.56h-60.61l-29.04 47.56z"/>
  <path class="st4" d="M500.47 422.7s-1.48 4.31 0 12.64c1.28 7.25 35.04 71.99 35.04 71.99l7.23-2.62-20.86-80.84-21.41-1.17z"/>
  <defs>
    <path id="SVGID_1_" d="M500.47 422.7s-1.48 4.31 0 12.64c1.28 7.25 35.04 71.99 35.04 71.99l7.23-2.62-20.86-80.84-21.41-1.17z"/>
  </defs>
  <clipPath id="SVGID_2_">
    <use xlink:href="#SVGID_1_" overflow="visible"/>
  </clipPath>
  <path class="st6" d="M583.92 445.19c-2.19 0-4.12-1.31-4.91-3.35-1.31-3.33-1.93-5.81-1.85-7.35.17-3.27 2.91-5.94 3.22-6.24.69-.65 1.78-.62 2.44.07.65.69.62 1.78-.07 2.44-.57.54-2.06 2.3-2.14 3.91-.05.99.55 3.2 1.62 5.91.28.7.94 1.16 1.7 1.16.56 0 1.08-.25 1.43-.69.35-.43.48-.99.36-1.53-.9-4.03-.82-5.22-.8-5.6.17-2.77 3.27-5.99 3.89-6.61.67-.67 1.77-.67 2.44 0 .67.67.67 1.77 0 2.44-1.12 1.12-2.81 3.29-2.88 4.38-.02.33.01 1.43.72 4.64.35 1.57-.03 3.19-1.03 4.44a5.292 5.292 0 0 1-4.14 1.98z"/>
  <circle class="st5" cx="589.79" cy="430.92" r="2.78"/>
  <path class="st1" d="M557.28 385.31s-.27 6.5-2.08 8.04c-1.81 1.54-6.05-.36-8.67-2.98s-.9-8.67.99-9.94c1.9-1.27 10.21-3.34 9.76 4.88z"/>
  <path class="st1" d="M551.24 391.45s-2.09 2.53-3.45 4.61-4.25-.9-3.61-3.34c.63-2.44 2.71-4.79 2.71-4.79l4.35 3.52z"/>
  <path d="M549.6 403.22c1.58-6.25-3.13-12.32-9.57-12.54-1.48-.05-3.23.07-5.24.5-7.68 1.63-20.14 9.75-26.28 16.08-6.14 6.32-9.03 14.99-9.48 16.44-.45 1.45 6.41-.63 15.26.36s14.09 3.61 14.09 3.61 6.5-8.22 12.01-11.83c5.51-3.61 8.13-8.76 9.12-12.28.03-.12.06-.23.09-.34z" fill="#2db495"/>
  <path class="st8" d="M549.6 403.22c1.58-6.25-3.13-12.32-9.57-12.54-1.48-.05-3.23.07-5.24.5-7.68 1.63-20.14 9.75-26.28 16.08-6.14 6.32-9.03 14.99-9.48 16.44-.45 1.45 6.41-.63 15.26.36s14.09 3.61 14.09 3.61 6.5-8.22 12.01-11.83c5.51-3.61 8.13-8.76 9.12-12.28.03-.12.06-.23.09-.34z"/>
  <path class="st1" d="M542.5 416.55s6.91 8.95 14.8 12.67c7.88 3.72 28.17 1.61 29.18 1.31 1-.3 2.91-2.51 4.22-1.91 1.31.6 2.91 1.21 3.72 1.1.8-.1.3-2.71-1.51-3.72s-4.22 0-5.52.4c-1.31.4-20.79-2.91-24.11-4.82-3.31-1.91-13.13-11.85-13.13-11.85s-6.93 1.38-7.65 6.82z"/>
  <path class="st5" d="M592.85 506.7c-.74 0-1.43-.48-1.65-1.23l-15.27-51.01a1.7 1.7 0 0 1 .18-1.39l6.34-10.49c.49-.82 1.55-1.08 2.37-.58.82.49 1.08 1.55.58 2.37l-5.94 9.84 15.05 50.28c.27.91-.25 1.87-1.16 2.15-.17.03-.33.06-.5.06z"/>
  <defs>
    <path id="SVGID_3_" d="M549.6 403.22c1.58-6.25-3.13-12.32-9.57-12.54-1.48-.05-3.23.07-5.24.5-7.68 1.63-20.14 9.75-26.28 16.08-6.14 6.32-9.03 14.99-9.48 16.44-.45 1.45 6.41-.63 15.26.36s14.09 3.61 14.09 3.61 6.5-8.22 12.01-11.83c5.51-3.61 8.13-8.76 9.12-12.28.03-.12.06-.23.09-.34z"/>
  </defs>
  <clipPath id="SVGID_4_">
    <use xlink:href="#SVGID_3_" overflow="visible"/>
  </clipPath>
  <path class="st8" d="M535.85 396.27s-3.28 1-2.95 6.83c.34 5.83 8.27 14.46 8.27 14.46l10.95-8.4s-4.61-8.48-8.03-11.69c-3.82-3.57-8.24-1.2-8.24-1.2z"/>
  <path class="st6" d="M557.85 381.7c.18 2.13-1.63 3.91-3.75 3.68-.02 0-.05-.01-.07-.01-2.41-.3-3.49-.74-4.34-.61s-1.26.73-.66 2.36-1.43 6.51-4.93 9.64-21.87 11.28-30.36 12.41c-8.49 1.14-18.97-1.69-21.56-7-2.59-5.3-.24-10.12 7.17-11.87s13.19-1.51 18.01-7.59c4.82-6.08 9.82-7.23 14.88-6.63 5.06.6 12.11.86 15.78-.14 3.22-.87 9.37.42 9.83 5.76z"/>
  <defs>
    <path id="SVGID_5_" d="M557.85 381.7c.18 2.13-1.63 3.91-3.75 3.68-.02 0-.05-.01-.07-.01-2.41-.3-3.49-.74-4.34-.61s-1.26.73-.66 2.36-1.43 6.51-4.93 9.64-21.87 11.28-30.36 12.41c-8.49 1.14-18.97-1.69-21.56-7-2.59-5.3-.24-10.12 7.17-11.87s13.19-1.51 18.01-7.59c4.82-6.08 9.82-7.23 14.88-6.63 5.06.6 12.11.86 15.78-.14 3.22-.87 9.37.42 9.83 5.76z"/>
  </defs>
  <clipPath id="SVGID_6_">
    <use xlink:href="#SVGID_5_" overflow="visible"/>
  </clipPath>
  <ellipse transform="rotate(-80.712 481.367 504.968)" class="st1" cx="481.35" cy="504.97" rx="4.35" ry="4.35"/>
  <ellipse transform="rotate(-80.003 592.874 504.982)" class="st1" cx="592.85" cy="504.97" rx="4.35" ry="4.35"/>
  <path class="st8" d="M541.81 505.05l-5.53 2s-.13 2.92.87 4.23 10.55-2.11 11.25-3.31-6.59-2.92-6.59-2.92z"/>
  <path class="st6" d="M535.81 512.14l14.47-4.66 1.26 3.09-14.31 5.09z"/>
  <path class="st1" d="M176.27 290.66h4.33v389.32h-4.33zM162.7 290.66h4.33v389.32h-4.33zM216.99 290.66h4.33v389.32h-4.33zM189.84 290.66h4.33v389.32h-4.33zM203.42 290.66h4.33v389.32h-4.33zM121.98 290.66h4.33v389.32h-4.33zM107.86 290.66h4.33v389.32h-4.33zM135.55 290.66h4.33v389.32h-4.33z"/>
  <g>
    <path class="st1" d="M149.12 290.66h4.33v389.32h-4.33z"/>
  </g>
  <path class="st1" d="M107.86 566.52h113.46V672H107.86z"/>
  <path class="st9" d="M107.86 568.11c63.13 0 114.31 50.08 114.31 111.86H107.86"/>
  <path fill="#fcf3e8" d="M107.86 281.82h113.15v110H107.86z"/>
  <path class="st9" d="M221.01 281.82H107.93v110"/>
  <path class="st4" d="M220.76 265.13h190.62v415.08H220.76z"/>
  <g>
    <path class="st3" d="M280.06 303.48c-8.71 0-15.77 7.06-15.77 15.77v39.83h31.55v-39.83c0-8.71-7.06-15.77-15.78-15.77zM351.7 303.48c-8.71 0-15.77 7.06-15.77 15.77v39.83h31.55v-39.83c0-8.71-7.06-15.77-15.78-15.77zM280.06 411.6c-8.71 0-15.77 7.07-15.77 15.78v39.83h31.55v-39.83c0-8.71-7.06-15.78-15.78-15.78zM351.7 411.6c-8.71 0-15.77 7.07-15.77 15.78v39.83h31.55v-39.83c0-8.71-7.06-15.78-15.78-15.78zM280.06 509.81c-8.71 0-15.77 7.06-15.77 15.77v39.83h31.55v-39.83c0-8.71-7.06-15.77-15.78-15.77zM351.7 509.81c-8.71 0-15.77 7.06-15.77 15.77v39.83h31.55v-39.83c0-8.71-7.06-15.77-15.78-15.77z"/>
  </g>
  <path fill="#caffec" d="M220.72 260.25h190.69v21.03H220.72z"/>
  <path class="st6" d="M.31 392h108.06v16.04H.31z"/>
  <path class="st6" d="M.31 407.65h108.06v272.32H.31z"/>
  <path class="st12" d="M46.78 453.2h18.38v54.19H46.78z"/>
  <path class="st8" d="M40.82 448.04c0-8.36 6.78-15.15 15.15-15.15 8.37 0 15.15 6.79 15.15 15.15h-30.3zM46.78 497.03h18.38v10.36H46.78zM40.82 448.04h30.3v5.16h-30.3z"/>
  <path class="st12" d="M46.78 553.23h18.38v54.19H46.78z"/>
  <path class="st8" d="M40.82 548.08c0-8.37 6.78-15.15 15.15-15.15 8.37 0 15.15 6.78 15.15 15.15h-30.3zM46.78 597.07h18.38v10.36H46.78zM40.82 548.08h30.3v5.15h-30.3z"/>
  <path class="st6" d="M71.12 374.34h16.89v20.3H71.12zM42.8 374.34h8.44v20.3H42.8z"/>
  <g>
    <path class="st8" d="M650.15 262.66c98.93-.44 197.86-.77 296.8-.99-5.27-24.02-36.8-37.82-58.03-25.39-.32-21.77-8.33-43.8-23.93-58.99-15.59-15.2-39.05-22.68-60.07-17.02-21.03 5.66-38.12 25.36-38.57 47.13-14.71-6.68-30.27-13.51-46.35-11.97-16.08 1.54-32.24 14.82-30.79 30.91-9.62-8.68-25.9-8.57-35.4.23s-10.85 25.03-2.93 35.28"/>
  </g>
  <g>
    <path class="st4" d="M415.1 111.53c69.81-.47 139.62-.83 209.42-1.06-3.72-25.69-25.97-40.45-40.94-27.15-.23-23.28-5.88-46.84-16.88-63.09S539.15-4.03 524.31 2.02c-14.84 6.05-26.9 27.12-27.22 50.41-10.38-7.14-21.36-14.45-32.71-12.8-11.34 1.65-22.75 15.85-21.72 33.06-6.79-9.28-18.28-9.17-24.98.25-6.7 9.41-7.66 26.77-2.07 37.73"/>
  </g>
  <path class="st13" d="M0 730.21c53.58 0 53.58 34.03 107.17 34.03s53.58-34.03 107.17-34.03 53.58 34.03 107.17 34.03c53.58 0 53.58-34.03 107.17-34.03s53.58 34.03 107.17 34.03c53.58 0 53.58-34.03 107.17-34.03 53.58 0 53.58 34.03 107.17 34.03 53.58 0 53.58-34.03 107.17-34.03 53.58 0 53.58 34.03 107.17 34.03 53.58 0 53.58-34.03 107.17-34.03"/>
  <path class="st13" d="M0 704.69c53.58 0 53.58 34.03 107.17 34.03s53.58-34.03 107.17-34.03 53.58 34.03 107.17 34.03c53.58 0 53.58-34.03 107.17-34.03s53.58 34.03 107.17 34.03c53.58 0 53.58-34.03 107.17-34.03 53.58 0 53.58 34.03 107.17 34.03 53.58 0 53.58-34.03 107.17-34.03 53.58 0 53.58 34.03 107.17 34.03 53.58 0 53.58-34.03 107.17-34.03"/>
  <path class="st13" d="M0 679.17c53.58 0 53.58 34.03 107.17 34.03s53.58-34.03 107.17-34.03 53.58 34.03 107.17 34.03c53.58 0 53.58-34.03 107.17-34.03s53.58 34.03 107.17 34.03c53.58 0 53.58-34.03 107.17-34.03 53.58 0 53.58 34.03 107.17 34.03 53.58 0 53.58-34.03 107.17-34.03 53.58 0 53.58 34.03 107.17 34.03 53.58 0 53.58-34.03 107.17-34.03"/>
</svg>
