<svg xmlns="http://www.w3.org/2000/svg" width="949.74" height="456.91" viewBox="0 0 949.74 456.91" overflow="visible"><style>.st1{fill:#efa240}.st2{fill:#ebf0e7}.st3{fill:#f0eee3}.st4{fill:#ed78aa}.st5{fill:#f2c9b1}.st6{fill:#ed7058}.st8{fill:#3a385f}.st10{fill:#fff}.st12{fill:#caffec}.st13{fill:none;stroke:#3a385f;stroke-width:5.2832;stroke-miterlimit:10}</style><path d="M159.43 136.2c-3.56 4.9-33.06-7.55-35.23 1.68-2.17 9.22 26.76 13.56 21.68 20.56-5.08 7-106.64 4.21-110.33 5.11-3.69.91-5.78-5.42-3.83-10.13 1.96-4.71 37.5-4.35 37.64-9.5.14-5.14-6.11-4.42-6.55-10.78-.44-6.36 32.41-10.17 39.31-7.77 6.91 2.4 12.86-8.54 9.06-19.64-3.79-11.1 20.13-6.82 24.05-8.56 3.92-1.74-6.12-9.55-9.19-24.57-1.53-7.49 11.33-4.92 27.44-6l6.23 69.2-.28.4z" fill-rule="evenodd" clip-rule="evenodd" fill="#caffec"/><path class="st1" d="M25.5 190.57h54.04V456H25.5z"/><path class="st2" d="M25.5 407.88h725.72V456H25.5z"/><path class="st1" d="M167.22 145.62h149.87v262.27H167.22z"/><path class="st3" d="M121.27 128.91h45.11v278.97h-45.11z"/><path class="st4" d="M79.55 225.03h41.55v182.86H79.55z"/><path class="st5" d="M775.78 118.06h103.07v131.77H775.78z"/><path class="st4" d="M775.78 249.83h103.07v158.28H775.78z"/><path class="st6" d="M317.09 128.91h61.87v120.91h-61.87z"/><path class="st1" d="M525.98 131.32h248.17v118.51H525.98z"/><path fill="#efeae7" d="M167.22 31.29h211.74v97.63H167.22z"/><path class="st2" d="M317.09 249.83h61.87v104.21h-61.87z"/><path class="st5" d="M378.96 249.83h-61.87v104.21"/><path class="st8" d="M878.85 118.06h-103v131.77"/><path class="st4" d="M317.09 354.04h61.87v53.85h-61.87z"/><path class="st8" d="M378.96 311.54h146.98v96.34H378.96z"/><path fill="#e96b51" d="M525.93 311.54h185.89v96.34H525.93z"/><path class="st8" d="M167.22 129.25h149.87v16.37H167.22z"/><path class="st10" d="M225.53 220.01h-21.29v-40.08c0-5.88 4.77-10.65 10.65-10.65 5.88 0 10.65 4.77 10.65 10.65v40.08zM198.26 220.01h33.5v5.94h-33.5zM279.82 220.01h-21.29v-40.08c0-5.88 4.77-10.65 10.65-10.65 5.88 0 10.65 4.77 10.65 10.65v40.08zM252.55 220.01h33.5v5.94h-33.5zM225.53 308.57h-21.29v-40.08c0-5.88 4.77-10.65 10.65-10.65 5.88 0 10.65 4.77 10.65 10.65v40.08zM198.26 308.57h33.5v5.94h-33.5zM279.82 308.57h-21.29v-40.08c0-5.88 4.77-10.65 10.65-10.65 5.88 0 10.65 4.77 10.65 10.65v40.08zM252.55 308.57h33.5v5.94h-33.5z"/><path class="st1" d="M525.93 311.54c-53.21 0-96.34 43.13-96.34 96.34h96.34M774.15 249.32c57.83 0 104.7 43.13 104.7 96.34h-104.7"/><path class="st4" d="M379 58.07h146.92v253.6H379z"/><path class="st2" d="M430.17 81.5c-5.32 0-9.63 4.31-9.63 9.64v24.33h19.27V91.14c0-5.33-4.32-9.64-9.64-9.64zM473.94 81.5c-5.32 0-9.64 4.31-9.64 9.64v24.33h19.27V91.14c.01-5.33-4.31-9.64-9.63-9.64zM430.17 147.56c-5.32 0-9.63 4.32-9.63 9.64v24.34h19.27V157.2c0-5.33-4.32-9.64-9.64-9.64zM473.94 147.56c-5.32 0-9.64 4.32-9.64 9.64v24.34h19.27V157.2c.01-5.33-4.31-9.64-9.63-9.64zM430.17 207.56c-5.32 0-9.63 4.31-9.63 9.64v24.33h19.27V217.2c0-5.33-4.32-9.64-9.64-9.64zM473.94 207.56c-5.32 0-9.64 4.31-9.64 9.64v24.33h19.27V217.2c.01-5.33-4.31-9.64-9.63-9.64zM430.17 264.53c-5.32 0-9.63 4.32-9.63 9.64v24.34h19.27v-24.34c0-5.33-4.32-9.64-9.64-9.64zM473.94 264.53c-5.32 0-9.64 4.32-9.64 9.64v24.34h19.27v-24.34c.01-5.33-4.31-9.64-9.63-9.64z"/><path class="st8" d="M378.96 55.08h146.98v12.85H378.96z"/><path class="st3" d="M525.98 118.06h249.8v19.79h-249.8z"/><path class="st10" d="M379 135.22h146.92v2.4H379z"/><path class="st1" d="M167.22 118.65h211.74v2.4H167.22zM167.22 108.55h211.74v2.4H167.22zM167.22 98.45h211.74v2.4H167.22zM167.22 88.36h211.74v2.4H167.22zM167.22 78.26h211.74v2.4H167.22zM167.22 68.17h211.74v2.4H167.22z"/><path class="st1" d="M167.22 68.17h211.74v2.4H167.22zM167.22 58.07h211.74v2.4H167.22zM167.22 47.98h211.74v2.4H167.22zM167.22 37.88h211.74v2.4H167.22z"/><path class="st10" d="M379 192.22h146.92v2.41H379zM379 255.54h146.92v2.4H379z"/><path class="st8" d="M715.22 203.18l-47.32-35.93-47.31-35.93-47.32 35.93-47.32 35.93v108.49h189.27V209.03"/><path d="M22.92 408.11h235.6c-10.79-5.37-18.68-15.49-24.86-25.95-6.6-11.18-11.85-23.25-19.97-33.38-3.2-4-6.98-7.76-11.73-9.67-4.76-1.91-10.67-1.6-14.46 1.85-2.18 1.98-3.44 4.76-5.26 7.07-7.81 9.94-23.93 8.89-34.37 1.77-10.44-7.13-16.98-18.51-24.55-28.64-11.09-14.86-24.98-27.58-40.55-37.65-5.55-3.59-11.7-6.95-18.3-6.76-8.32.24-15.7 6.36-19.19 13.91-3.5 7.55-3.64 16.27-2.35 24.49 1.16 7.43 3.35 15.44-.07 22.14-6.25 12.25-25.06 10.19-35.49 19.15-9.16 7.87-9.23 22.78-3.22 33.25 4.41 7.71 11.29 13.5 18.77 18.42z" fill="#e4f9f2"/><path class="st10" d="M541.23 207.09h18.5v18.5h-18.5zM569.87 207.09h18.5v18.5h-18.5zM596.62 207.09h18.5v18.5h-18.5zM541.23 233.6h18.5v18.5h-18.5zM569.87 233.6h18.5v18.5h-18.5zM596.62 233.6h18.5v18.5h-18.5z"/><path class="st4" d="M729.95 118.06h1.63v289.83h-1.63zM739.77 118.06h1.63v289.83h-1.63zM749.6 118.06h1.63v289.83h-1.63zM759.42 118.06h1.63v289.83h-1.63zM769.24 118.06h1.63v289.83h-1.63zM734.86 118.06h1.63v289.83h-1.63zM744.68 118.06h1.63v289.83h-1.63zM715.22 118.06h1.63v289.83h-1.63zM725.04 118.06h1.63v289.83h-1.63zM720.13 118.06h1.63v289.83h-1.63zM754.51 118.06h1.63v289.83h-1.63zM764.33 118.06h1.63v289.83h-1.63zM774.15 118.06h1.63v289.83h-1.63z"/><path class="st12" d="M776.76 408.11H525.95c11.49-5.37 19.89-15.49 26.46-25.95 7.03-11.18 12.62-23.25 21.26-33.38 3.41-4 7.43-7.76 12.49-9.67 5.06-1.91 11.36-1.6 15.4 1.85 2.32 1.98 3.67 4.76 5.6 7.07 8.31 9.94 25.48 8.89 36.59 1.77 11.12-7.13 18.08-18.51 26.13-28.64 11.81-14.86 26.6-27.58 43.17-37.65 5.91-3.59 12.45-6.95 19.48-6.76 8.86.24 16.71 6.36 20.43 13.91 3.72 7.55 3.87 16.27 2.5 24.49-1.24 7.43-3.57 15.44.07 22.14 6.65 12.25 26.68 10.19 37.78 19.15 9.75 7.87 9.83 22.78 3.43 33.25-4.7 7.71-12.01 13.5-19.98 18.42z"/><path class="st12" d="M632.31 408.11H459.35c7.92-3.94 13.71-11.37 18.25-19.05 4.85-8.21 8.7-17.07 14.66-24.51 2.35-2.94 5.12-5.7 8.61-7.1 3.49-1.4 7.84-1.18 10.62 1.36 1.6 1.46 2.53 3.49 3.86 5.19 5.73 7.3 17.57 6.53 25.24 1.3 7.67-5.23 12.47-13.59 18.02-21.02 8.15-10.91 18.34-20.25 29.77-27.64 4.07-2.63 8.59-5.1 13.44-4.96 6.11.18 11.52 4.67 14.09 10.21 2.57 5.55 2.67 11.95 1.72 17.98-.85 5.45-2.46 11.33.05 16.25 4.59 9 18.4 7.48 26.06 14.06 6.73 5.78 6.78 16.72 2.36 24.41-3.24 5.66-8.29 9.91-13.79 13.52z"/><path class="st12" d="M632.31 408.11H459.35c7.92-3.94 13.71-11.37 18.25-19.05 4.85-8.21 8.7-17.07 14.66-24.51 2.35-2.94 5.12-5.7 8.61-7.1 3.49-1.4 7.84-1.18 10.62 1.36 1.6 1.46 2.53 3.49 3.86 5.19 5.73 7.3 17.57 6.53 25.24 1.3 7.67-5.23 12.47-13.59 18.02-21.02 8.15-10.91 18.34-20.25 29.77-27.64 4.07-2.63 8.59-5.1 13.44-4.96 6.11.18 11.52 4.67 14.09 10.21 2.57 5.55 2.67 11.95 1.72 17.98-.85 5.45-2.46 11.33.05 16.25 4.59 9 18.4 7.48 26.06 14.06 6.73 5.78 6.78 16.72 2.36 24.41-3.24 5.66-8.29 9.91-13.79 13.52z"/><path class="st13" d="M25.9 435.9c21.59 0 21.59 16.05 43.18 16.05s21.59-16.05 43.18-16.05 21.59 16.05 43.18 16.05 21.59-16.05 43.18-16.05 21.59 16.05 43.18 16.05 21.59-16.05 43.18-16.05 21.59 16.05 43.18 16.05 21.59-16.05 43.18-16.05 21.59 16.05 43.18 16.05 21.59-16.05 43.18-16.05 21.59 16.05 43.18 16.05 21.59-16.05 43.18-16.05 21.59 16.05 43.18 16.05 21.59-16.05 43.18-16.05 21.59 16.05 43.18 16.05 21.59-16.05 43.18-16.05"/><path class="st13" d="M25.9 423.86c21.59 0 21.59 16.05 43.18 16.05s21.59-16.05 43.18-16.05 21.59 16.05 43.18 16.05 21.59-16.05 43.18-16.05 21.59 16.05 43.18 16.05 21.59-16.05 43.18-16.05 21.59 16.05 43.18 16.05 21.59-16.05 43.18-16.05 21.59 16.05 43.18 16.05 21.59-16.05 43.18-16.05 21.59 16.05 43.18 16.05 21.59-16.05 43.18-16.05 21.59 16.05 43.18 16.05 21.59-16.05 43.18-16.05 21.59 16.05 43.18 16.05 21.59-16.05 43.18-16.05"/><path class="st13" d="M25.9 411.82c21.59 0 21.59 16.05 43.18 16.05s21.59-16.05 43.18-16.05 21.59 16.05 43.18 16.05 21.59-16.05 43.18-16.05 21.59 16.05 43.18 16.05 21.59-16.05 43.18-16.05 21.59 16.05 43.18 16.05 21.59-16.05 43.18-16.05 21.59 16.05 43.18 16.05 21.59-16.05 43.18-16.05 21.59 16.05 43.18 16.05 21.59-16.05 43.18-16.05 21.59 16.05 43.18 16.05 21.59-16.05 43.18-16.05 21.59 16.05 43.18 16.05 21.59-16.05 43.18-16.05"/><path class="st8" d="M79.55 223.15h41.55v-46.67"/><circle class="st6" cx="167.22" cy="80.45" r="80.45"/><circle class="st1" cx="167.22" cy="80.67" r="51.99"/><circle class="st4" cx="167.22" cy="80.67" r="31.45"/><path class="st8" d="M138.75 169.77h10.14v10.14h-10.14zM138.75 194.43h10.14v10.14h-10.14zM138.75 219.08h10.14v10.14h-10.14zM138.75 243.74h10.14v10.14h-10.14zM138.75 268.4h10.14v10.14h-10.14zM653.46 137.84h11.61v49.29h-11.61z"/><path d="M379.71 101.26c8.7 4.95 70.48-7.34 77.01 1.95 6.53 9.3-55.61 13.44-43.18 20.52s232.97 5.03 241.18 5.98c8.21.94 11.53-5.41 6.35-10.16-5.18-4.76-82.49-4.66-83.8-9.84-1.31-5.18 12.44-4.4 12.16-10.79-.28-6.39-72.54-10.48-87.1-8.11-14.57 2.37-29.66-8.69-23.58-19.82 6.08-11.13-45.15-7.01-54.03-8.79-8.88-1.78 11.44-9.56 15.18-24.65 1.86-7.52-25.63-5.03-60.91-6.25v69.57l.72.39z" fill-rule="evenodd" clip-rule="evenodd" fill="#efa240"/><path d="M923.57 456.91H654.6c-8.26-22.49 10.38-34.65 28.53-37.97 14.59-2.67 13.38-18.93 22.65-30.64 3.66-4.63 7.96-8.97 13.39-11.18 5.43-2.21 12.19-1.85 16.51 2.14 2.48 2.3 3.93 5.5 6.01 8.18 8.91 11.5 27.32 10.29 39.24 2.04s19.39-21.4 28.02-33.12c12.67-17.18 28.52-31.89 46.3-43.54 6.33-4.15 13.36-8.03 20.9-7.81 9.5.28 17.92 7.36 21.91 16.09 3.99 8.74 4.15 18.82 2.68 28.33-1.33 8.59-3.82 17.85.07 25.6 7.13 14.17 28.61 11.78 40.52 22.15 10.46 9.1 10.54 26.34 3.67 38.46-5.04 8.89-12.88 15.59-21.43 21.27z" fill="#afdbc9"/><path class="st1" d="M30.98 169.97h11.61v49.29H30.98z"/><path class="st4" d="M622.42 73.31c67.23-.3 134.47-.52 201.7-.67-3.58-16.33-25.01-25.7-39.43-17.26-.22-14.8-5.66-29.76-16.26-40.09C757.83 4.97 741.89-.12 727.6 3.73s-25.91 17.24-26.21 32.03c-9.99-4.54-20.57-9.18-31.5-8.14-10.93 1.05-21.91 10.07-20.92 21.01-6.54-5.9-17.6-5.82-24.06.16-6.46 5.98-7.37 17.01-1.99 23.98"/></svg>