<svg xmlns="http://www.w3.org/2000/svg" width="847.95" height="662.36" viewBox="0 0 847.95 662.36" overflow="visible"><style>.st0{fill:#fff}.st1{fill:#efa240}.st2{fill:#3a385f}.st3{fill:#ed7058}.st4{fill:#ed78aa}.st5{fill:#afdbc9}</style><path class="st0" d="M600.16 72.51C350.68-37.36 354.95-44.48 147.98 208.1c-256.87 313.48 16.93 558.85 295.99 409.21 0 0 738.96-288.15 156.19-544.8z"/><path class="st1" d="M269.7 229.36H435v289.26H269.7z"/><path class="st2" d="M269.7 211.31H435v18.05H269.7z"/><path class="st0" d="M334.01 311.41h-23.48v-44.2c0-6.49 5.26-11.74 11.74-11.74s11.74 5.26 11.74 11.74v44.2zM393.89 311.41H370.4v-44.2c0-6.49 5.26-11.74 11.74-11.74s11.74 5.26 11.74 11.74v44.2zM334.01 409.09h-23.48v-44.2c0-6.48 5.26-11.74 11.74-11.74s11.74 5.26 11.74 11.74v44.2zM393.89 409.09H370.4v-44.2c0-6.48 5.26-11.74 11.74-11.74s11.74 5.26 11.74 11.74v44.2z"/><path class="st3" d="M429.29 354.22s-16.31-7.81-9.86-27.32c6.45-19.51 37.32-64.88 40.83-71.52 7.29-13.77 21.68-42.98 58.88-19.34 0 0 5.39 5.82 0 10.42s-89.85 107.76-89.85 107.76"/><path class="st2" d="M696.65 472.86s9.89 14.18 18.05 19.34c8.17 5.16 26.65 11.6 27.51 18.91.86 7.31-6.02 5.59-6.02 5.59l-57.59.18s-1.72-1.9-1.72-6.62-1.15-32.81-1.15-32.81 18.77-7.52 20.92-4.59z"/><path class="st4" d="M415.56 435.61c2.29-14.33 12.61-130.66 49.28-149 4.01 0 10.32 3.44 19.48 13.75 9.17 10.32 26.93 20.63 28.65 33.24 1.72 12.61 1.72 31.52 4.01 38.4 2.29 6.88 10.89 34.38 10.89 34.38l17.48 21.2s44.41-104.87 62.75-111.18c18.34-6.3 37.82 1.72 44.7 14.9 6.88 13.18 46.42 106.59 46.42 133.52 0 8.6-23.5 12.61-23.5 12.61s-47.56-48.71-47.56-78.51c-9.17 29.23-30.37 95.7-48.14 111.75-9.17 9.17-12.61 9.17-12.61 9.17H518.7s-35.76-29.86-61.32-102.58c5.73-9.74-11.46 22.35-11.46 22.35h-8.02"/><path class="st2" d="M481.29 297.09l10.78-13.77s12.46 3.87 14.18 0c1.72-3.87 12.46-13.75 10.75-42.55-8.6 15.47-27.13 41.51-43.65 49.34M437.91 439.62l-.35.89-31.4 79.39s-44.46.52-46.18-.06-3.44-8.02 16.62-12.03l20.06-4.01s15.53-50.35 18.64-66.64c.11-.56.2-1.08.27-1.55"/><circle class="st3" cx="633.24" cy="184.02" r="88.73"/><circle class="st1" cx="633.24" cy="184.26" r="57.34"/><circle class="st4" cx="633.24" cy="184.26" r="34.69"/><path class="st2" d="M120.17 291.55H269.7v227.07H120.17z"/><path class="st0" d="M141.88 304.62h31.36v42.86h-31.36zM216.63 304.62H248v42.86h-31.37zM141.88 362.12h31.36v42.86h-31.36zM216.63 362.12H248v42.86h-31.37zM141.88 419.88h31.36v42.86h-31.36zM216.63 419.88H248v42.86h-31.37z"/><path class="st5" d="M241.15 259.28h-92.43l-28.55 31.18H269.7z"/><path class="st1" d="M141.88 304.62h31.36v9.97h-31.36zM216.63 419.88h31.36v4.99h-31.36zM216.63 304.62H248v26.42h-31.37zM141.88 419.88h31.36v34.81h-31.36z"/><path class="st5" d="M625.49 279.85c74.15-.33 148.3-.58 222.46-.74-3.95-18.01-27.59-28.35-43.49-19.03-.24-16.32-6.25-32.83-17.94-44.22-11.69-11.39-29.27-17-45.03-12.76-15.76 4.24-28.57 19.01-28.91 35.33-11.02-5.01-22.69-10.13-34.74-8.97-12.05 1.15-24.16 11.11-23.08 23.17-7.21-6.5-19.41-6.42-26.53.17-7.12 6.6-8.13 18.76-2.2 26.44M23.87 541.4h245.36c7.54-20.52-9.47-31.61-26.02-34.64-13.31-2.43-12.21-17.26-20.66-27.95-3.34-4.22-7.26-8.19-12.22-10.2-4.95-2.01-11.12-1.69-15.06 1.95-2.27 2.09-3.59 5.02-5.48 7.46-8.13 10.49-24.92 9.38-35.8 1.87-10.87-7.52-17.69-19.52-25.56-30.21-11.55-15.67-26.02-29.09-42.23-39.71-5.78-3.78-12.18-7.33-19.06-7.13-8.66.25-16.35 6.71-19.99 14.68-3.64 7.97-3.79 17.16-2.44 25.84 1.21 7.84 3.49 16.29-.07 23.35-6.51 12.93-26.1 10.74-36.96 20.2-9.54 8.31-9.61 24.03-3.35 35.08 4.59 8.12 11.75 14.23 19.54 19.41z"/></svg>