<svg xmlns="http://www.w3.org/2000/svg" width="738.71" height="765.44" viewBox="0 0 738.71 765.44" overflow="visible">
  <style>
    .st1{fill:#3a385f}.st2{fill:#ed7058}.st3{fill:#afdbc9}.st4{fill:#efa240}.st5{fill:#fff}.st6{fill:#ed78aa}
  </style>
  <path d="M681.82 516.62c64.6-254.17 72.03-251.26-200.52-407.5-338.26-193.9-527.57 104.9-341.23 345.89 0 0 390.86 655.37 541.75 61.61z" fill="#e4f9f2"/>
  <path class="st1" d="M370.77 226.61c.43-4.07.87-8.14 1.3-12.22.21-1.98.45-4.04 1.53-5.71s3.28-2.8 5.11-2c1.77-2.31 4.08-3.98 6.77-5.09 2.69-1.11 5.92-1.16 8.41.37 3.95 2.43 4.84 7.89 3.99 12.46-1.9 10.27-11.07 18.75-21.46 19.85-2.03-2.43-5.98-4.52-5.65-7.66zM191.85 630.27l15.8 36.75-47.82-35.71 14.85-13.87zM165.25 388.02c2.68 1.49 4.69 4.14 5.41 7.13s.13 6.26-1.58 8.81c4.79 2.08 7.44 8.96 4.79 13.46-2.88 4.9-10.08 6.03-15.04 3.26-4.96-2.77-7.75-8.46-8.37-14.11-.62-5.65.63-11.32 2.05-16.82 3.6-2.51 8.9-3.87 12.74-1.73z"/>
  <path class="st2" d="M271.28 355.45c15.59 43.75 22.64 90.17 25.15 136.55 2.51 46.38-10.05 108.31-12 154.71h-22.41c-7.54-50.7-10.07-115.28-30.56-162.26-17.9-41.08 13.17-92.99 39.82-129z"/>
  <path class="st2" d="M278.73 350.31c6.52 99.66-25.16 201.35-87.12 279.68-7.08-3.26-14.96-7.79-21.28-12.34 13.13-35.52 26.24-88.78 39.37-124.3-14.17-48.61-22.45-84.21-26.18-134.71-.81-10.94 17.03-11.98 27.82-13.96 25.07-4.57 47.13-9.81 67.39 5.63z"/>
  <path class="st3" d="M264.61 165.08c21.84 28.07 37.63 60.82 45.98 95.39 19.93-12.99 40.96-26.19 60.89-39.18 3.67 3.08 7.64 8.39 8.82 13.04-19.72 24.75-54.03 54.09-79.8 72.46-16.68-8.72-24.14-27.66-34.29-43.5-18.6-29.04-11.43-65.16-1.6-98.21z"/>
  <path class="st3" d="M270.62 162.08c14.34 68.1 18.33 138.37 11.82 207.65-33.45 11.68-68.96 12.16-102.02-.55-2.05-50.26 3.7-101.36 16.49-150.01 4.57-17.37 10.4-35.11 22.59-48.29 12.19-13.19 34.79-16.26 51.12-8.8z"/>
  <path class="st3" d="M244.13 166.21c7.55 11.08 5.17 26 1.18 38.79-9.54 30.59-26.77 58.74-49.66 81.16-9.36 34.51-19.23 68.95-28.59 103.46-5.43.72-9.98 2-15.41 2.72-4.79-39.65-4.21-79.72 5.24-118.52s29.38-75.81 60.22-101.18c6.72-5.53 18.91-9.64 27.02-6.43z"/>
  <path class="st1" d="M283.63 645.35l34.64 20h-59.68l3.6-20z"/>
  <path class="st4" d="M275.62 86.57c-3.78-1.1-7.08-3.47-10.83-4.69-5.27-1.72-11.28-.97-15.97 1.98-4.69 2.95-7.96 8.06-8.68 13.55-7.94.98-13.81 10.57-13.6 18.57.2 8 4.55 15.29 9.39 21.66s10.39 12.35 13.69 19.64a38.36 38.36 0 0 0 26.6-22.17c.39-.91 3.25-1.07 2.26-.98 4.97 2.42 8.63 6.89 13.25 9.94 4.62 3.04 11.41 4.31 15.29.37 1.57-1.59 2.43-3.84 4.23-5.17 0 0 7.14-12.79-5.45-16.21-12.58-3.41-9.83-14.74-16.26-25.31s-13.92-11.18-13.92-11.18z"/>
  <path class="st1" d="M275.22 135.7c-3.75 8.51-6.6 17.42-8.48 26.53-7.21 4.11-16.66 3.71-22.99-1.66 2.43-10.36 8.61-19.69 16.65-26.65 4.87-.69 10.44-.45 14.82 1.78z"/>
  <path class="st1" d="M288.81 108.48c2.13 17.39-.32 35.32-7.02 51.5-8.46-1.28-19.03-3.95-25.98-8.93-6.86-4.92-12.66-11.65-15.29-19.68-2.63-8.03-1.77-17.4 3.31-24.15 4.87-6.47 13.18-9.92 21.28-9.7 8.09.21 17.61 5.62 23.7 10.96z"/>
  <path class="st4" d="M303.61 131.2c-15.58 2.11-32.05-4.3-42.1-16.39.57 4.77-2.65 10.75-6.72 13.31.17 2.29.26 4.33.42 6.62-1.33-2.9-3.25-6.39-4.59-9.29-.57-1.24-1.32-2.63-2.66-2.88-1.29-.24-2.56.8-2.99 2.04-.42 1.25-.18 2.62.18 3.88 1.2 4.17 3.77 7.93 7.22 10.56.03 4.11-1.66 8.67-4.76 11.38-6.9-10.43-13.26-23.34-9.95-35.4 2.7-9.85 11.66-17.2 21.54-19.78 9.88-2.58 20.47-.93 30.02 2.69 6.82 2.58 13.59 6.47 17.15 12.83s3.41 16.54-2.76 20.43z"/>
  <path class="st1" d="M328.89 314.02h191.24v338.46H328.89z"/>
  <path class="st5" d="M395.5 380.41c-6.93 0-12.54 5.62-12.54 12.55v31.68h25.09v-31.68c0-6.93-5.62-12.55-12.55-12.55zM452.48 380.41c-6.93 0-12.54 5.62-12.54 12.55v31.68h25.09v-31.68c0-6.93-5.62-12.55-12.55-12.55zM395.5 459.83c-6.93 0-12.54 5.61-12.54 12.54v31.68h25.09v-31.68c0-6.93-5.62-12.54-12.55-12.54zM452.48 459.83c-6.93 0-12.54 5.61-12.54 12.54v31.68h25.09v-31.68c0-6.93-5.62-12.54-12.55-12.54zM395.5 539.24c-6.93 0-12.54 5.62-12.54 12.54v31.68h25.09v-31.68c0-6.92-5.62-12.54-12.55-12.54zM452.48 539.24c-6.93 0-12.54 5.62-12.54 12.54v31.68h25.09v-31.68c0-6.92-5.62-12.54-12.55-12.54z"/>
  <path class="st5" d="M376.94 424.63h37.54v8.24h-37.54zM433.92 424.63h37.54v8.24h-37.54zM376.94 504.05h37.54v8.24h-37.54zM433.92 504.05h37.54v8.24h-37.54zM376.94 583.46h37.54v8.24h-37.54zM433.92 583.46h37.54v8.24h-37.54z"/>
  <path class="st4" d="M520.14 232.73h110.68v13.72H520.14zM327.14 303.73h193.35v13.72H327.14z"/>
  <path class="st6" d="M520.14 246.02h110.68v406.1H520.14z"/>
  <path class="st5" d="M567.73 363.7h18.82v55.5h-18.82z"/>
  <path class="st3" d="M561.63 358.42h31.03v5.28h-31.03z"/>
  <path class="st5" d="M567.73 266.7h18.82v55.5h-18.82z"/>
  <path class="st3" d="M561.63 261.42h31.03v5.28h-31.03z"/>
  <path class="st5" d="M567.73 458.15h18.82v55.5h-18.82z"/>
  <path class="st3" d="M561.63 452.88h31.03v5.28h-31.03z"/>
  <path class="st5" d="M567.73 549.82h18.82v55.5h-18.82z"/>
  <path class="st3" d="M561.63 544.55h31.03v5.28h-31.03z"/>
  <g>
    <circle class="st2" cx="557.65" cy="85.36" r="85.36"/>
    <circle class="st4" cx="557.65" cy="85.59" r="55.16"/>
    <circle class="st6" cx="557.65" cy="85.59" r="33.37"/>
  </g>
  <g>
    <path class="st5" d="M347.2 171.55c71.34-.32 142.68-.56 214.02-.71-3.8-17.32-26.54-27.27-41.84-18.31-.23-15.7-6.01-31.58-17.25-42.54s-28.16-16.36-43.32-12.28S431.32 116 431 131.7c-10.6-4.82-21.83-9.74-33.42-8.63-11.59 1.11-23.25 10.69-22.2 22.29-6.93-6.26-18.68-6.18-25.53.17-6.85 6.35-7.82 18.05-2.11 25.44"/>
  </g>
  <g>
    <path class="st4" d="M2.92 325.02c65.19-.35 130.37-.62 195.56-.79-3.47-19.27-24.25-30.34-38.23-20.37-.21-17.47-5.49-35.14-15.77-47.33-10.28-12.19-25.73-18.2-39.58-13.66-13.85 4.54-25.12 20.35-25.41 37.81-9.69-5.36-19.95-10.84-30.54-9.6-10.59 1.24-21.24 11.89-20.29 24.8-6.34-6.96-17.07-6.88-23.33.19-6.26 7.06-7.15 20.08-1.93 28.3"/>
  </g>
  <path class="st3" d="M710.19 694.02H417.14c-9-24.5 11.31-37.75 31.08-41.37 15.89-2.91 14.58-20.62 24.67-33.39 3.99-5.04 8.68-9.78 14.59-12.18 5.92-2.4 13.28-2.02 17.99 2.33 2.71 2.5 4.28 5.99 6.55 8.91 9.71 12.53 29.77 11.21 42.76 2.23 12.99-8.98 21.12-23.32 30.53-36.08 13.8-18.72 31.08-34.75 50.44-47.43 6.9-4.52 14.55-8.75 22.77-8.51 10.35.3 19.53 8.01 23.88 17.53 4.35 9.52 4.52 20.5 2.92 30.86-1.45 9.36-4.17 19.45.08 27.89 7.77 15.44 31.17 12.83 44.15 24.13 11.4 9.92 11.48 28.7 4 41.9-5.49 9.69-14.04 16.98-23.36 23.18z"/>
</svg>
