<svg xmlns="http://www.w3.org/2000/svg" width="61.52" height="61.52" viewBox="0 0 61.52 61.52" overflow="visible">
  <path class="st0" d="M45.24 25.09a9.334 9.334 0 0 0 2.75-6.64c0-2.51-.98-4.87-2.75-6.64l-.73-.73a9.334 9.334 0 0 0-6.64-2.75c-2.51 0-4.87.98-6.64 2.75l-7.78 7.78a9.334 9.334 0 0 0-2.75 6.64c0 1.82.52 3.55 1.47 5.04l-5.88 5.88a9.334 9.334 0 0 0-2.75 6.64c0 2.51.98 4.87 2.75 6.64l.73.73a9.334 9.334 0 0 0 6.64 2.75c2.51 0 4.87-.98 6.64-2.75l7.78-7.78a9.334 9.334 0 0 0 2.75-6.64c0-1.82-.52-3.55-1.47-5.04l5.88-5.88zm-22.2.42c0-1.88.73-3.65 2.06-4.98l7.78-7.78a6.997 6.997 0 0 1 4.98-2.06c1.88 0 3.65.73 4.98 2.06l.73.73a6.997 6.997 0 0 1 2.06 4.98c0 1.88-.73 3.65-2.06 4.98l-5.72 5.72-.51-.51a9.334 9.334 0 0 0-6.64-2.75c-2.51 0-4.87.98-6.64 2.75l-.19.19a7.053 7.053 0 0 1-.83-3.33zm13.16 5.3l-.4.4a6.997 6.997 0 0 1-4.98 2.06c-1.88 0-3.65-.73-4.98-2.06l-.51-.51.4-.4a6.997 6.997 0 0 1 4.98-2.06c1.88 0 3.65.73 4.98 2.06l.51.51zm2.28 5.2c0 1.88-.73 3.65-2.06 4.98l-7.78 7.78a6.997 6.997 0 0 1-4.98 2.06c-1.88 0-3.65-.73-4.98-2.06l-.73-.73a6.997 6.997 0 0 1-2.06-4.98c0-1.88.73-3.65 2.06-4.98l5.72-5.72.51.51a9.334 9.334 0 0 0 6.64 2.75c2.51 0 4.87-.98 6.64-2.75l.19-.19c.54 1.01.83 2.15.83 3.33z"/>
  <path class="st0" d="M23.65 53.69c-2.64 0-5.13-1.03-6.99-2.9l-.73-.73c-1.87-1.87-2.9-4.35-2.9-7s1.03-5.13 2.9-6.99l5.6-5.6a9.827 9.827 0 0 1-1.34-4.97c0-2.64 1.03-5.13 2.9-6.99l7.78-7.78c1.87-1.87 4.35-2.9 7-2.9s5.13 1.03 6.99 2.9l.73.73a9.825 9.825 0 0 1 2.9 7c0 2.64-1.03 5.13-2.9 6.99l-5.6 5.6a9.854 9.854 0 0 1 1.34 4.97c0 2.64-1.03 5.13-2.9 6.99l-7.78 7.78a9.842 9.842 0 0 1-7 2.9zM37.87 8.83c-2.38 0-4.61.92-6.29 2.6l-7.78 7.78a8.826 8.826 0 0 0-2.6 6.29c0 1.7.48 3.35 1.39 4.77l.22.34-6.17 6.17a8.826 8.826 0 0 0-2.6 6.29c0 2.37.92 4.61 2.6 6.29l.73.73c1.68 1.68 3.91 2.61 6.29 2.61s4.61-.93 6.29-2.61l7.78-7.78a8.826 8.826 0 0 0 2.6-6.29c0-1.7-.48-3.35-1.39-4.77l-.22-.34 6.17-6.17c1.68-1.68 2.6-3.91 2.6-6.29s-.92-4.61-2.6-6.29l-.73-.73a8.843 8.843 0 0 0-6.29-2.6zM23.65 51.34c-2.02 0-3.91-.79-5.33-2.21l-.73-.73c-1.42-1.42-2.21-3.32-2.21-5.33s.78-3.91 2.21-5.33l6.07-6.07.86.86a8.826 8.826 0 0 0 6.29 2.6c2.38 0 4.61-.92 6.29-2.6l.67-.67.32.59c.59 1.09.9 2.32.9 3.57 0 2.02-.79 3.91-2.21 5.33L29 49.13a7.527 7.527 0 0 1-5.35 2.21zm.02-18.26l-5.37 5.37a6.497 6.497 0 0 0-1.92 4.63c0 1.75.68 3.39 1.92 4.63l.73.73c1.24 1.24 2.88 1.92 4.63 1.92s3.39-.68 4.63-1.92l7.78-7.78a6.497 6.497 0 0 0 1.92-4.63c0-.86-.17-1.7-.49-2.49a9.809 9.809 0 0 1-6.68 2.6c-2.64 0-5.13-1.03-7-2.9l-.15-.16zm7.14.7c-2.01 0-3.91-.78-5.33-2.21l-.86-.86.76-.76a7.505 7.505 0 0 1 5.33-2.21c2.01 0 3.91.78 5.33 2.21l.86.86-.76.76a7.488 7.488 0 0 1-5.33 2.21zm-4.78-3.07l.15.15c1.24 1.24 2.88 1.92 4.63 1.92s3.39-.68 4.63-1.92l.05-.05-.15-.15c-1.24-1.24-2.88-1.92-4.63-1.92s-3.39.68-4.63 1.92l-.05.05zm11.83-.85L37 29c-1.68-1.68-3.91-2.6-6.29-2.6s-4.61.92-6.29 2.6l-.67.67-.32-.59c-.59-1.09-.9-2.32-.9-3.57 0-2.02.79-3.91 2.21-5.33l7.78-7.78c1.42-1.42 3.32-2.21 5.33-2.21s3.91.79 5.33 2.21l.73.73c1.42 1.42 2.21 3.32 2.21 5.33s-.78 3.91-2.21 5.33l-6.05 6.07zm-7.15-4.46c2.64 0 5.13 1.03 7 2.9l.15.15 5.37-5.37a6.497 6.497 0 0 0 1.92-4.63c0-1.75-.68-3.39-1.92-4.63l-.73-.73c-1.24-1.24-2.88-1.92-4.63-1.92s-3.39.68-4.63 1.92l-7.78 7.78a6.497 6.497 0 0 0-1.92 4.63c0 .86.17 1.7.49 2.49a9.8 9.8 0 0 1 6.68-2.59zM15.02 16.68c.23.23.53.34.83.34a1.17 1.17 0 0 0 .83-2l-5.73-5.73a1.17 1.17 0 0 0-1.66 0c-.46.46-.46 1.2 0 1.66l5.73 5.73z"/>
  <path class="st0" d="M15.85 17.53c-.45 0-.87-.17-1.18-.49L8.94 11.3c-.65-.65-.65-1.71 0-2.37.32-.32.74-.49 1.18-.49.45 0 .87.17 1.18.49l5.73 5.73c.65.65.65 1.71 0 2.37-.31.32-.73.5-1.18.5zm-5.73-8.08a.673.673 0 0 0-.48 1.15l5.74 5.73c.25.25.7.25.95 0 .26-.26.26-.69 0-.95L10.6 9.64a.708.708 0 0 0-.48-.19zM9.78 22.6H1.67c-.65 0-1.17.53-1.17 1.17s.53 1.17 1.17 1.17h8.11c.65 0 1.17-.53 1.17-1.17s-.52-1.17-1.17-1.17z"/>
  <path class="st0" d="M9.78 25.45H1.67C.75 25.45 0 24.7 0 23.77s.75-1.67 1.67-1.67h8.11a1.675 1.675 0 0 1 0 3.35zM1.67 23.1a.67.67 0 0 0 0 1.34h8.11a.67.67 0 0 0 0-1.34H1.67zM23.77 10.96c.65 0 1.17-.53 1.17-1.17V1.67c0-.65-.53-1.17-1.17-1.17-.65 0-1.17.53-1.17 1.17v8.11c0 .65.53 1.18 1.17 1.18z"/>
  <path class="st0" d="M23.77 11.46c-.92 0-1.67-.75-1.67-1.67V1.67c0-.92.75-1.67 1.67-1.67.92 0 1.67.75 1.67 1.67v8.11c.01.93-.74 1.68-1.67 1.68zm0-10.46c-.37 0-.67.3-.67.67v8.11a.67.67 0 0 0 1.34 0V1.67a.658.658 0 0 0-.67-.67z"/>
  <g>
    <path class="st0" d="M46.5 44.84c-.46-.46-1.2-.46-1.66 0s-.46 1.2 0 1.66l5.73 5.73c.23.23.53.34.83.34s.6-.11.83-.34c.46-.46.46-1.2 0-1.66l-5.73-5.73z"/>
    <path class="st0" d="M51.4 53.07c-.45 0-.87-.17-1.18-.49l-5.73-5.73c-.65-.65-.65-1.71 0-2.37.32-.32.74-.49 1.18-.49.47.01.87.17 1.18.49l5.73 5.73c.65.65.65 1.71 0 2.37-.31.32-.73.49-1.18.49zm-5.73-8.08a.673.673 0 0 0-.48 1.15l5.73 5.73c.25.25.7.25.95 0 .26-.26.26-.69 0-.95l-5.73-5.73a.634.634 0 0 0-.47-.2z"/>
  </g>
  <g>
    <path class="st0" d="M37.75 50.56c-.65 0-1.17.53-1.17 1.17v8.11c0 .65.53 1.17 1.17 1.17.65 0 1.17-.53 1.17-1.17v-8.11c0-.64-.53-1.17-1.17-1.17z"/>
    <path class="st0" d="M37.75 61.52c-.92 0-1.67-.75-1.67-1.67v-8.11c0-.92.75-1.67 1.67-1.67.92 0 1.67.75 1.67 1.67v8.11c0 .92-.75 1.67-1.67 1.67zm0-10.46c-.37 0-.67.3-.67.67v8.11a.67.67 0 0 0 1.34 0v-8.11c0-.36-.3-.67-.67-.67z"/>
  </g>
  <g>
    <path class="st0" d="M59.85 36.57h-8.11c-.65 0-1.17.53-1.17 1.17s.53 1.17 1.17 1.17h8.11c.65 0 1.17-.53 1.17-1.17s-.53-1.17-1.17-1.17z"/>
    <path class="st0" d="M59.85 39.42h-8.11c-.92 0-1.67-.75-1.67-1.67 0-.92.75-1.67 1.67-1.67h8.11c.92 0 1.67.75 1.67 1.67 0 .92-.75 1.67-1.67 1.67zm-8.11-2.35a.67.67 0 0 0 0 1.34h8.11a.67.67 0 0 0 0-1.34h-8.11z"/>
  </g>
</svg>
