<svg xmlns="http://www.w3.org/2000/svg" width="113.73" height="114.1" viewBox="0 0 113.73 114.1" overflow="visible">
  <style>
    .st2{fill:#ebf0e7}.st3{fill:#efa240}
  </style>
  <path d="M53.96 114.03v-54.2H.21v54.13m86.56-88.47c12.27 0 22.75 8.04 26.95 19.38V.05H59.7V45.2c4.12-11.52 14.69-19.71 27.07-19.71z" fill="#3a385f"/>
  <path class="st2" d="M52.93 98.04c-1.53-2.31-3.44-5.19-7.35-5.19-3.91 0-5.82 2.88-7.35 5.19-1.44 2.18-2.34 3.42-4.04 3.42-1.7 0-2.6-1.23-4.04-3.42-1.53-2.31-3.44-5.19-7.35-5.19-3.91 0-5.82 2.88-7.35 5.19-1.44 2.18-2.34 3.42-4.04 3.42-1.7 0-2.6-1.23-4.04-3.42C5.86 95.76 4 92.94.21 92.85v3.97c1.58.09 2.46 1.31 3.85 3.41 1.53 2.31 3.44 5.19 7.35 5.19 3.91 0 5.82-2.88 7.35-5.19 1.44-2.18 2.34-3.42 4.04-3.42 1.7 0 2.6 1.23 4.04 3.42 1.53 2.31 3.44 5.19 7.35 5.19 3.91 0 5.82-2.88 7.35-5.19 1.44-2.18 2.34-3.42 4.04-3.42 1.7 0 2.6 1.23 4.04 3.42 1.07 1.62 2.33 3.52 4.34 4.51v-5.21c-.32-.42-.66-.92-1.03-1.49zm0-13.42c-1.53-2.31-3.44-5.19-7.35-5.19-3.91 0-5.82 2.88-7.35 5.19-1.44 2.18-2.34 3.42-4.04 3.42-1.7 0-2.6-1.23-4.04-3.42-1.53-2.31-3.44-5.19-7.35-5.19-3.91 0-5.82 2.88-7.35 5.19-1.44 2.18-2.34 3.42-4.04 3.42-1.7 0-2.6-1.23-4.04-3.42C5.86 82.35 4 79.52.21 79.43v3.97c1.58.09 2.46 1.31 3.85 3.41C5.59 89.12 7.49 92 11.41 92c3.91 0 5.82-2.88 7.35-5.19 1.44-2.18 2.34-3.42 4.04-3.42 1.7 0 2.6 1.23 4.04 3.42 1.53 2.31 3.44 5.19 7.35 5.19 3.91 0 5.82-2.88 7.35-5.19 1.44-2.18 2.34-3.42 4.04-3.42 1.7 0 2.6 1.23 4.04 3.42 1.07 1.62 2.33 3.52 4.34 4.51v-5.21c-.32-.42-.66-.92-1.03-1.49z"/>
  <path class="st2" d="M53.96 73.71c-.32-.43-.66-.93-1.03-1.5-1.53-2.31-3.44-5.19-7.35-5.19-3.91 0-5.82 2.88-7.35 5.19-1.44 2.18-2.34 3.42-4.04 3.42-1.7 0-2.6-1.23-4.04-3.42-1.53-2.31-3.44-5.19-7.35-5.19-3.91 0-5.82 2.88-7.35 5.19-1.44 2.18-2.34 3.42-4.04 3.42-1.7 0-2.6-1.23-4.04-3.42C5.86 69.93 4 67.11.21 67.02v3.97c1.58.09 2.46 1.31 3.85 3.41 1.53 2.31 3.44 5.19 7.35 5.19 3.91 0 5.82-2.88 7.35-5.19 1.44-2.18 2.34-3.42 4.04-3.42 1.7 0 2.6 1.23 4.04 3.42 1.53 2.31 3.44 5.19 7.35 5.19 3.91 0 5.82-2.88 7.35-5.19 1.44-2.18 2.34-3.42 4.04-3.42 1.7 0 2.6 1.23 4.04 3.42 1.07 1.62 2.33 3.52 4.34 4.51v-5.2zm0 0z"/>
  <path class="st3" d="M59.7 60.44l12.21 12.21V66.8h7.66v13.51l33.78 33.79H59.7h54.03V59.83H59.7z"/>
  <path class="st2" d="M113.35 114.1L79.57 80.31V66.8h-7.66v5.85L59.7 60.44v53.66zM86.77 25.47c-12.39 0-22.96 8.2-27.08 19.73v9.07h54.03v-9.41c-4.2-11.34-14.68-19.39-26.95-19.39z"/>
  <path d="M55.04 74.91c-.02-.02-.04-.04-.06-.05.02.01.04.03.06.05zm-.46-.44c-.05-.06-.11-.12-.16-.18.05.06.11.12.16.18zm-.62-.76c.05.07.11.14.16.21-.05-.07-.11-.14-.16-.21zm.81.95c-.03-.03-.06-.05-.08-.08l.08.08zm-.45-.49c-.03-.04-.06-.08-.1-.12.04.04.07.08.1.12zm.91.89c-.02-.02-.05-.03-.07-.05.03.01.05.03.07.05zm-1.01-1.01c-.03-.04-.07-.08-.1-.13.04.05.07.09.1.13zm.47.53l-.11-.11c.04.03.07.07.11.11zm.47.42c-.04-.03-.08-.06-.12-.1.04.04.08.07.12.1zm-.18-.15z" fill="#fff"/>
  <path class="st2" d="M54.03.61L41.82 12.83V6.97h-7.66v13.51L.38 54.27h53.65H0V0h54.03z"/>
  <path class="st3" d="M.38 54.27l33.78-33.79V6.97h7.66v5.86L53.97.55l.06 53.72z"/>
</svg>
