<svg xmlns="http://www.w3.org/2000/svg" width="46.67" height="46.67" viewBox="0 0 46.67 46.67" overflow="visible">
  <style>
    .st0{fill:#efa240}
  </style>
  <path class="st0" d="M23.34 46.67C10.47 46.67 0 36.2 0 23.34S10.47 0 23.34 0s23.34 10.47 23.34 23.34S36.2 46.67 23.34 46.67zm0-43.34c-11.03 0-20 8.97-20 20s8.97 20 20 20 20-8.97 20-20-8.97-20-20-20z"/>
  <path class="st0" d="M31.45 36.71H16.11c-.79 0-1.48-.54-1.66-1.31-.18-.77.19-1.56.9-1.92 2.2-1.1 4.55-3.88 3.94-8.09-.11-.73-.53-1.81-.98-2.95-1.39-3.54-3.72-9.46 2.02-12.98 5.31-3.25 9.94.39 11.65 2.77.55.76.37 1.83-.39 2.38-.76.55-1.82.37-2.37-.39-.33-.45-3.25-4.22-7.1-1.86-3.07 1.89-2.24 4.72-.63 8.83.52 1.33 1.02 2.59 1.18 3.72.5 3.51-.46 6.33-1.99 8.39h10.77c.94 0 1.7.76 1.7 1.7s-.76 1.71-1.7 1.71z"/>
  <path class="st0" d="M25.64 25.75H15.22c-.94 0-1.7-.76-1.7-1.7s.76-1.7 1.7-1.7h10.42c.94 0 1.7.76 1.7 1.7s-.76 1.7-1.7 1.7z"/>
</svg>
