<svg xmlns="http://www.w3.org/2000/svg" width="49.47" height="46.75" viewBox="0 0 49.47 46.75" overflow="visible"><style>.st0{fill:#efa240}</style><path class="st0" d="M24.64 28.13c-7.75 0-14.06-6.31-14.06-14.06C10.58 6.31 16.89 0 24.64 0 32.4 0 38.7 6.31 38.7 14.06c0 4.1-1.78 7.99-4.89 10.66a14.03 14.03 0 0 1-9.17 3.41zm0-24.73c-5.88 0-10.66 4.78-10.66 10.66s4.78 10.66 10.66 10.66c2.55 0 5.02-.91 6.95-2.58a10.66 10.66 0 0 0 3.71-8.09c0-5.87-4.78-10.65-10.66-10.65z"/><path class="st0" d="M47.77 46.75H1.7c-.94 0-1.7-.76-1.7-1.7 0-6.27 2.59-12.15 7.28-16.58.68-.64 1.76-.61 2.4.07.64.68.61 1.76-.07 2.4-3.58 3.37-5.72 7.72-6.14 12.4h42.51c-.7-7.56-6.02-14.26-13.67-16.99-.88-.32-1.35-1.29-1.03-2.17.32-.88 1.28-1.35 2.17-1.03 9.58 3.41 16.01 12.21 16.01 21.89.01.95-.76 1.71-1.69 1.71z"/></svg>