<!-- Generator: Adobe Illustrator 24.2.2, SVG Export Plug-In  -->
<svg version="1.1" xmlns="http://www.w3.org/2000/svg" xmlns:xlink="http://www.w3.org/1999/xlink" x="0px" y="0px"
	 width="724.19px" height="756.71px" viewBox="0 0 724.19 756.71"
	 style="overflow:visible;enable-background:new 0 0 724.19 756.71;" xml:space="preserve">
<style type="text/css">
	.st0{fill:#E4F9F2;}
	.st1{fill:#EFA240;}
	.st2{fill:#3A385F;}
	.st3{fill:#ED78AA;}
	.st4{fill:#AFDBC9;}
	.st5{fill:#FFFFFF;}
	.st6{fill:#ED7058;}
</style>
<defs>
</defs>
<g>
	<path class="st0" d="M686.88,507.9c64.6-254.17,72.03-251.26-200.52-407.5C148.09-93.51-41.21,205.29,145.13,446.29
		C145.13,446.29,535.98,1101.65,686.88,507.9z"/>
	<g>
		<path class="st1" d="M374.41,161.87c0.76-1.28,1.86-2.32,2.96-3.32c1.1-1,2.22-2.01,3.05-3.24c0.83-1.24,1.35-2.75,1.09-4.22
			c-0.26-1.47-1.45-2.81-2.93-2.95c2.64-0.87,4.61-4.26,4.44-7.04c-0.17-2.78-2.38-5.3-5.11-5.84c-3.32-0.65-6.59,1.42-8.86,3.91
			c-5.24,5.74-7.14,14.33-4.81,21.74C367.48,162.57,370.98,163.07,374.41,161.87z"/>
		<path class="st2" d="M488.63,137.12c-27.35,5.3-52.91,19.44-71.95,39.78c-19.03,20.34-31.44,46.79-34.91,74.43
			c-9.88-30.04-12.09-62.43-2.7-92.63c-5.17-0.79-12.5-0.72-17.54,0.65c-13.61,36.87-14.48,81.15-1.4,118.21
			c5.18,14.69,14.73,30.42,30.17,32.46c10.09,1.33,19.91-3.73,28.23-9.6c21.42-15.11,31.19-62.53,40.35-87.09
			c6.4-17.16,16.04-8.71,23.48-25.44S495.59,154.06,488.63,137.12z"/>
		<path class="st3" d="M486.79,65.01c11.38-6.02,25.81,1.92,29.17,3.72c6.27,3.37,8.63,12.39,4.82,18.4c3.59,1.53,5,5.61,4.91,9.51
			c-0.15,6.52-3.89,12.56-8.82,16.84c-4.93,4.28-10.97,7.03-17,9.53c-3.37-1.76-4.79-5.9-5.1-9.69c-0.31-3.79,0.02-7.74-1.42-11.27
			c-2.08-5.1-7.47-9.09-12.35-6.53c-5.65,2.96-13.57,0.02-15.91-5.91c-1.64-4.16-3.07-8.41-3.4-12.86
			C460.68,63,472.35,72.66,486.79,65.01z"/>
		<path class="st4" d="M442.39,324.14c-21.88,97.95-18.19,201.5,10.61,297.64h12.55c-8-49.1-5.81-99.29,1.93-148.44
			s20.65-97.31,33.54-145.36C481.9,314.65,463.17,313.55,442.39,324.14z"/>
		<path class="st4" d="M541.73,304.33c1.7,106.33-6.3,212.81-23.85,317.7h-11.21c1.74-97.56-9.42-197.06-30.72-292.29
			c5.06-14.21,16.98-25.05,31.13-30.26c5.83-2.15,12.24-3.22,18.28-1.76S541.63,298.12,541.73,304.33z"/>
		<path class="st2" d="M487.01,134.45c-34.06,14.95-58,32.29-64.45,68.92c-6.45,36.63,1.48,124.07,7.16,160.83
			c39.17,7.48,80.62,6.47,118.47-6.09c6.98-24.53,14.18-81.88,15.19-107.37c1.02-25.49-3.37-51.7-16.27-73.71
			C534.22,155.04,512.27,137.95,487.01,134.45z"/>
		<path class="st1" d="M527.15,409.32c-0.14,0.82-0.81,1.45-1.51,1.9s-1.49,0.78-2.11,1.34c-1.02,0.91-1.48,2.31-1.59,3.67
			c-0.19,2.26,0.56,4.68,2.31,6.12c1.75,1.45,4.54,1.65,6.25,0.16c1.73-1.5,1.92-4.09,1.76-6.37c-0.17-2.28-0.55-4.69,0.42-6.77
			C531.07,408.44,528.94,408.82,527.15,409.32z"/>
		<path class="st2" d="M507.8,144.29c26.03,2.79,47.96,22.6,59.37,46.17s13.8,50.45,13.76,76.63c-0.04,26.26-2.38,52.69-9.75,77.89
			c-7.37,25.2-19.98,49.2-38.63,67.68c-2.01-1.31-4.72-1.06-6.73-2.37c25.14-43.56,23.73-100.7-1.81-144.03
			c-15.82-26.85-14.08-60.3-15.96-91.41C507.49,165.57,510.58,153.16,507.8,144.29z"/>
		<path class="st1" d="M483.11,115.89c-1.31,9.68-3.27,19.27-5.87,28.68c7.41,7.03,19.31,8.46,28.82,4.74
			c-2.47-14.06-2.04-28.18-2.15-42.46C496.48,108.04,489.09,111.3,483.11,115.89z"/>
		<path class="st1" d="M483.97,79.16c-8.69,12.38-11.56,28.67-7.63,43.28c9.93,0.18,20.56-3.14,27.8-9.94
			c3.17-0.27,6.02-2.51,7.26-5.44c1.24-2.93,0.72-6.53-1.31-8.99c2.46-3.98,1.75-8.2-0.38-12.37c-2.13-4.17-6.27-7.17-10.83-8.21
			C494.32,76.45,486.65,75.33,483.97,79.16z"/>
		<polygon class="st3" points="453.01,621.78 434.82,636.65 470.24,636.65 465.56,621.78 		"/>
		<polygon class="st3" points="506.68,622.03 497.72,636.65 528.86,636.65 517.89,622.03 		"/>
		<path class="st3" d="M505.53,103.16c1.64-1.34,0.37-2.46,2.26-3.43c1.89-0.97,4.34-1.24,6.05,0.02c3.88-6.5,3.14-15.97-1.84-21.66
			c-4.99-5.7-13.01-8.25-20.54-7.49c-7.53,0.76-13.48,5.33-19.03,10.48c0.08,1.86,1.54,3.35,3,4.52c7.68,6.12,18.18,8.55,27.77,6.44
			c0.22,2.71-0.59,5.72-1.94,8.08"/>
		<path class="st1" d="M381.15,146.31c1.23-1.45,1.98-3.46,1.88-5.21c-0.17-2.78-2.38-5.3-5.11-5.84c-3.31-0.65-6.59,1.42-8.86,3.91
			c-3.19,3.49-5.14,8.04-5.65,12.74c1.12,0.13,2.27,0.01,3.38-0.21c1.97-0.39,3.93-1.11,5.45-2.42c1.52-1.31,3.57-3.65,3.38-5.65
			C376.86,145.36,379.01,146.4,381.15,146.31z"/>
	</g>
	<rect x="108.86" y="271" class="st4" width="191.24" height="365.49"/>
	<path class="st5" d="M175.47,285c-6.93,0-12.54,5.61-12.54,12.54v31.68h25.09v-31.68C188.02,290.61,182.4,285,175.47,285z"/>
	<path class="st5" d="M232.45,285c-6.93,0-12.54,5.61-12.54,12.54v31.68h25.09v-31.68C244.99,290.61,239.37,285,232.45,285z"/>
	<path class="st5" d="M175.47,364.41c-6.93,0-12.54,5.62-12.54,12.55v31.68h25.09v-31.68C188.02,370.03,182.4,364.41,175.47,364.41z
		"/>
	<path class="st5" d="M232.45,364.41c-6.93,0-12.54,5.62-12.54,12.55v31.68h25.09v-31.68C244.99,370.03,239.37,364.41,232.45,364.41
		z"/>
	<path class="st5" d="M175.47,443.83c-6.93,0-12.54,5.61-12.54,12.54v31.68h25.09v-31.68C188.02,449.44,182.4,443.83,175.47,443.83z
		"/>
	<path class="st5" d="M232.45,443.83c-6.93,0-12.54,5.61-12.54,12.54v31.68h25.09v-31.68C244.99,449.44,239.37,443.83,232.45,443.83
		z"/>
	<path class="st5" d="M175.47,523.24c-6.93,0-12.54,5.62-12.54,12.54v31.68h25.09v-31.68C188.02,528.86,182.4,523.24,175.47,523.24z
		"/>
	<path class="st5" d="M232.45,523.24c-6.93,0-12.54,5.62-12.54,12.54v31.68h25.09v-31.68C244.99,528.86,239.37,523.24,232.45,523.24
		z"/>
	<g>
		<rect x="156.91" y="329.22" class="st5" width="37.54" height="8.24"/>
		<rect x="213.89" y="329.22" class="st5" width="37.54" height="8.24"/>
		<rect x="156.91" y="408.63" class="st5" width="37.54" height="8.24"/>
		<rect x="213.89" y="408.63" class="st5" width="37.54" height="8.24"/>
		<rect x="156.91" y="488.05" class="st5" width="37.54" height="8.24"/>
		<rect x="213.89" y="488.05" class="st5" width="37.54" height="8.24"/>
		<rect x="156.91" y="567.46" class="st5" width="37.54" height="8.24"/>
		<rect x="213.89" y="567.46" class="st5" width="37.54" height="8.24"/>
	</g>
	<rect x="108.81" y="256.97" class="st2" width="191.32" height="14.03"/>
	<rect x="108.81" y="249.65" class="st2" width="191.32" height="7.32"/>
	<rect x="300.1" y="267.73" class="st1" width="110.68" height="13.72"/>
	<rect x="300.1" y="281.06" class="st3" width="110.68" height="355.06"/>
	<rect x="347.7" y="327.7" class="st5" width="18.82" height="55.5"/>
	<rect x="341.6" y="322.42" class="st4" width="31.03" height="5.28"/>
	<rect x="347.7" y="430.16" class="st5" width="18.82" height="55.5"/>
	<rect x="341.6" y="424.88" class="st4" width="31.03" height="5.28"/>
	<rect x="347.7" y="533.83" class="st5" width="18.82" height="55.5"/>
	<rect x="341.6" y="528.55" class="st4" width="31.03" height="5.28"/>
	<circle class="st6" cx="102.18" cy="85.36" r="85.36"/>
	<circle class="st1" cx="102.18" cy="85.59" r="55.16"/>
	<circle class="st3" cx="102.18" cy="85.59" r="33.37"/>
	<g>
		<path class="st5" d="M120.73,156.55c71.34-0.32,142.68-0.56,214.02-0.71c-3.8-17.32-26.54-27.27-41.84-18.31
			c-0.23-15.7-6.01-31.58-17.25-42.54c-11.24-10.96-28.16-16.36-43.32-12.28c-15.16,4.08-27.49,18.29-27.81,33.99
			c-10.6-4.82-21.83-9.74-33.42-8.63c-11.59,1.11-23.25,10.69-22.2,22.29c-6.93-6.26-18.68-6.18-25.53,0.17
			c-6.85,6.35-7.82,18.05-2.11,25.44"/>
	</g>
	<path class="st1" d="M28.52,658.65l293.05,0c9-24.5-11.31-37.75-31.08-41.37c-15.89-2.91-14.58-20.62-24.67-33.39
		c-3.99-5.04-8.68-9.78-14.59-12.18c-5.92-2.4-13.28-2.02-17.99,2.33c-2.71,2.5-4.28,5.99-6.55,8.91
		c-9.71,12.53-29.77,11.21-42.76,2.23c-12.99-8.98-21.12-23.32-30.53-36.08c-13.8-18.72-31.08-34.75-50.44-47.43
		c-6.9-4.52-14.55-8.75-22.77-8.51c-10.35,0.3-19.53,8.01-23.88,17.53c-4.35,9.52-4.52,20.5-2.92,30.86
		c1.45,9.36,4.17,19.45-0.08,27.89c-7.77,15.44-31.17,12.83-44.15,24.13c-11.4,9.92-11.48,28.7-4,41.9
		C10.65,645.15,19.2,652.45,28.52,658.65z"/>
</g>
</svg>
