<svg xmlns="http://www.w3.org/2000/svg" width="53.37" height="46.83" viewBox="0 0 53.37 46.83" overflow="visible">
  <path d="M5.44 46.83c-1.18 0-2.07-.24-2.55-.75-.59-.63-.68-1.54-.22-2.27.46-.74 1.65-2.39 2.9-4.15.55-.77 1.11-1.55 1.56-2.19C2.52 33.34 0 28 0 22.29 0 10 11.97 0 26.69 0 41.4 0 53.37 10 53.37 22.29s-11.97 22.3-26.68 22.3c-3.28 0-6.47-.49-9.51-1.46-4.55 2.36-8.96 3.7-11.74 3.7zm21.25-43.5c-12.88 0-23.35 8.51-23.35 18.96 0 5.14 2.51 9.96 7.06 13.57.67.53.83 1.47.38 2.19-.37.59-1.35 1.96-2.49 3.55-.41.58-.85 1.18-1.25 1.74 1.92-.34 5.05-1.25 9.21-3.48.41-.22.89-.26 1.33-.11 2.89 1 5.96 1.5 9.11 1.5 12.88 0 23.35-8.51 23.35-18.96S39.56 3.33 26.69 3.33z" />
</svg>
