<svg xmlns="http://www.w3.org/2000/svg" width="751.77" height="706.93" viewBox="0 0 751.77 706.93" overflow="visible"><style>.st1{fill:#ed78aa}.st2{fill:#3a385f}.st3{fill:#efa240}.st4{fill:#afdbc9}.st5{fill:#fff}.st6{fill:#ed7058}</style><path d="M62.32 423.43c50.93 257.26 42.97 257.83 356.21 281.74 388.77 29.68 431.26-321.48 159.43-458.98-.01-.01-634.62-423.73-515.64 177.24z" fill="#e4f9f2"/><path class="st1" d="M149.47 315.02h304.46v322.67H149.47z"/><path class="st2" d="M143.95 307.87h316.51v26.63H143.95z"/><path class="st3" d="M453.68 393.43h169.28v244.58H453.68z"/><path class="st4" d="M453.68 387.78h169.28v16.92H453.68z"/><path class="st5" d="M504.88 427.68c-8.56 0-15.51 6.95-15.51 15.51v39.16h31.02v-39.16c0-8.56-6.95-15.51-15.51-15.51zM571.07 427.68c-8.56 0-15.51 6.95-15.51 15.51v39.16h31.02v-39.16c0-8.56-6.94-15.51-15.51-15.51zM504.88 510.77c-8.56 0-15.51 6.95-15.51 15.51v39.16h31.02v-39.16c0-8.56-6.95-15.51-15.51-15.51zM571.07 510.77c-8.56 0-15.51 6.95-15.51 15.51v39.16h31.02v-39.16c0-8.56-6.94-15.51-15.51-15.51zM205.1 378.61h26.59v78.4H205.1z"/><path class="st4" d="M196.48 371.16h43.83v7.45h-43.83z"/><path class="st5" d="M288.1 378.61h26.59v78.4H288.1z"/><path class="st4" d="M279.48 371.16h43.83v7.45h-43.83z"/><path class="st5" d="M371.1 378.61h26.59v78.4H371.1z"/><path class="st4" d="M362.48 371.16h43.83v7.45h-43.83z"/><path class="st5" d="M205.1 500.61h26.59v78.4H205.1z"/><path class="st4" d="M196.48 493.16h43.83v7.45h-43.83z"/><path class="st5" d="M288.1 500.61h26.59v78.4H288.1z"/><path class="st4" d="M279.48 493.16h43.83v7.45h-43.83z"/><path class="st5" d="M371.1 500.61h26.59v78.4H371.1z"/><path class="st4" d="M362.48 493.16h43.83v7.45h-43.83z"/><path class="st2" d="M503.1 347.18s9.27 13.81 17.04 18.9c7.77 5.1 25.44 11.61 26.15 18.65.71 7.04-5.88 5.27-5.88 5.27l-55.4-.79s-1.62-1.85-1.54-6.4c.08-4.55-.56-31.58-.56-31.58s18.17-6.9 20.19-4.05z"/><path class="st4" d="M411.99 69.15c-3.86 6.03-8.89 15.08-12.76 21.11-8.18 1.3-12.42-7.75-20.39-10.02 3.02-6.9 4.78-9.63 7.8-16.52 8.27-2.22 18.06.96 25.35 5.43z"/><path class="st4" d="M422.09 16.65c4.9 17.04 4.64 35.53-.74 52.43-10.16 2.16-21.68 3.76-31.28-.2-9.6-3.96-17.79-11.8-21.04-21.66-4.57-13.88 2.12-30.58 15-37.47 12.88-6.9 34.02-7.14 38.06 6.9z"/><path class="st2" d="M387.24 37.88c2.65-2.3 4.93-5.23 5.95-8.58 13.06 2.05 26.04-3.33 37.57-9.79C424.82 9.22 414.78 2.58 403.07.54c-11.71-2.04-24.37 1.7-32.81 10.08-8.44 8.37-12.28 21.23-9.43 32.77 2.85 11.54 12.7 21.11 24.3 23.68 1.68-2.24 2.19-5.4 2.22-8.2-5.19-3.15-9.06-8.42-10.52-14.31-.33-1.34-.54-2.76-.19-4.09.35-1.33 1.39-2.56 2.75-2.78 1.91-.31 3.54 1.35 4.58 2.97"/><path class="st3" d="M336.22 191.7c-17.15 72.14-9.27 110.31-9.27 110.31s0 43 59.9 29.09c22.73-3.74 74.47-46.5 97.1-65.38-15.51 24.11-2.36 88.28-2.36 88.28s21.1 8.98 25.57 2.02c14.02-21.8 30.62-117.96 31.92-132.2 1.29-14.24-10.3-30.87-28.42-35.32-18.12-4.44-108.63 57.31-108.63 57.31l-3.11-26.25s7.36-26.73 9.08-33.49c1.72-6.76 11.56-22.06 16.73-33.16s-3.84-28.69-5.89-41.81c-2.05-13.12-5.36-19.18-8.61-21.27"/><path class="st3" d="M409.95 90.01s-52-30-61 6-14 100-14 100"/><path class="st4" d="M439.54 245.03c.93 1.55 4.57 1.41 7.54.64 2.97-.77 5.94-2 8.86-2.17 2.92-.16 5.42 1.57 3.55 3.33 3.87-.86 8.3 1.83 7.89 4.24-.41 2.41-3.71 4.91-7.43 6.27-3.72 1.35-7.76 1.72-11.43 1.63-9.74-.23-17.78-3.58-21.19-8.83 2.91-2.28 8.13-4.26 12.21-5.11z"/><path class="st2" d="M391.17 93.78c9.4 11.31-2.1 28.98-3.23 43.62-1.57 20.42.69 41.48 9.37 60.02 8.68 18.55 24.27 34.35 43.75 40.65-2.11 5.48-7.06 11.79-12.25 14.54-28.72-8.1-54.16-31.47-66.76-58.52-12.6-27.05-19.02-80.73-15.21-97.78 0 .01 13.71-39.35 44.33-2.53z"/><circle class="st6" cx="179.48" cy="119.07" r="85.36"/><circle class="st3" cx="179.48" cy="119.3" r="55.16"/><circle class="st1" cx="179.48" cy="119.3" r="33.37"/><g><path class="st4" d="M39.03 233.26c71.34-.32 142.68-.56 214.02-.71-3.8-17.32-26.54-27.27-41.84-18.31-.23-15.7-6.01-31.58-17.25-42.54s-28.16-16.36-43.32-12.28-27.49 18.29-27.81 33.99c-10.6-4.82-21.83-9.74-33.42-8.63-11.59 1.11-23.25 10.69-22.2 22.29-6.93-6.26-18.68-6.18-25.53.17-6.85 6.35-7.82 18.05-2.11 25.44"/></g><g><path class="st6" d="M581.36 337.26c56.53-.32 113.06-.56 169.59-.71-3.01-17.32-21.03-27.27-33.16-18.31-.18-15.7-4.76-31.58-13.67-42.54s-22.31-16.36-34.33-12.28c-12.01 4.08-21.78 18.29-22.04 33.99-8.4-4.82-17.3-9.74-26.48-8.63-9.19 1.11-18.42 10.69-17.59 22.29-5.5-6.26-14.8-6.18-20.23.17s-6.2 18.05-1.68 25.44"/></g><path class="st4" d="M28.52 659.01h293.05c9-24.5-11.31-37.75-31.08-41.37-15.89-2.91-14.58-20.62-24.67-33.39-3.99-5.04-8.68-9.78-14.59-12.18-5.92-2.4-13.28-2.02-17.99 2.33-2.71 2.5-4.28 5.99-6.55 8.91-9.71 12.53-29.77 11.21-42.76 2.23-12.99-8.98-21.12-23.32-30.53-36.08-13.8-18.72-31.08-34.75-50.44-47.43-6.9-4.52-14.55-8.75-22.77-8.51-10.35.3-19.53 8.01-23.88 17.53-4.35 9.52-4.52 20.5-2.92 30.86 1.45 9.36 4.17 19.45-.08 27.89-7.77 15.44-31.17 12.83-44.15 24.13-11.4 9.92-11.48 28.7-4 41.9 5.49 9.69 14.04 16.98 23.36 23.18z"/></svg>