<svg xmlns="http://www.w3.org/2000/svg" width="53.55" height="53.55" viewBox="0 0 53.55 53.55" overflow="visible">
  <style>
    .st0{fill:#efa240}
  </style>
  <path class="st0" d="M26.94 40.33c-7.58 0-13.75-6.17-13.75-13.75s6.17-13.75 13.75-13.75S40.69 19 40.69 26.58s-6.17 13.75-13.75 13.75zm0-24.11c-5.71 0-10.35 4.64-10.35 10.35s4.64 10.35 10.35 10.35 10.35-4.64 10.35-10.35c0-5.7-4.64-10.35-10.35-10.35zM26.94 11.05c-.94 0-1.7-.76-1.7-1.7V1.7c0-.94.76-1.7 1.7-1.7s1.7.76 1.7 1.7v7.65c0 .94-.76 1.7-1.7 1.7zM26.94 53.55c-.94 0-1.7-.76-1.7-1.7V44.2c0-.94.76-1.7 1.7-1.7s1.7.76 1.7 1.7v7.65c0 .94-.76 1.7-1.7 1.7zM35.58 13.34a1.69 1.69 0 0 1-1.47-2.54l3.79-6.64c.46-.82 1.5-1.1 2.32-.63.82.46 1.1 1.5.63 2.32l-3.79 6.64c-.32.55-.89.85-1.48.85zM14.5 50.25a1.69 1.69 0 0 1-1.47-2.54l3.79-6.64c.46-.82 1.5-1.1 2.32-.63.82.46 1.1 1.5.63 2.32l-3.79 6.64a1.7 1.7 0 0 1-1.48.85zM48.64 41.03c-.29 0-.58-.07-.85-.23l-6.62-3.83a1.697 1.697 0 1 1 1.7-2.94l6.62 3.83a1.7 1.7 0 0 1 .62 2.32c-.31.55-.88.85-1.47.85zM11.86 19.75c-.29 0-.58-.07-.85-.23l-6.62-3.83a1.7 1.7 0 0 1-.62-2.32c.47-.81 1.5-1.1 2.32-.62l6.62 3.83a1.7 1.7 0 0 1-.85 3.17zM42.08 19.84c-.59 0-1.16-.31-1.48-.86a1.7 1.7 0 0 1 .63-2.32l6.64-3.79a1.7 1.7 0 0 1 1.69 2.95l-6.64 3.79c-.27.16-.56.23-.84.23zM5.16 40.9c-.59 0-1.16-.31-1.48-.86a1.7 1.7 0 0 1 .63-2.32l6.65-3.79a1.7 1.7 0 0 1 1.69 2.95L6 40.68c-.26.15-.55.22-.84.22zM39.53 50.16c-.59 0-1.16-.3-1.47-.85l-3.84-6.62a1.697 1.697 0 1 1 2.94-1.7L41 47.61a1.7 1.7 0 0 1-1.47 2.55zM18.19 13.41c-.59 0-1.16-.3-1.47-.85l-3.84-6.62a1.697 1.697 0 1 1 2.94-1.7l3.84 6.62a1.7 1.7 0 0 1-1.47 2.55zM51.85 28.48H44.2c-.94 0-1.7-.76-1.7-1.7s.76-1.7 1.7-1.7h7.65c.94 0 1.7.76 1.7 1.7s-.76 1.7-1.7 1.7zM9.35 28.48H1.7c-.94 0-1.7-.76-1.7-1.7s.76-1.7 1.7-1.7h7.65c.94 0 1.7.76 1.7 1.7s-.76 1.7-1.7 1.7z"/>
</svg>
