<?xml version="1.0" standalone="no"?>
<!DOCTYPE svg PUBLIC "-//W3C//DTD SVG 20010904//EN"
 "http://www.w3.org/TR/2001/REC-SVG-20010904/DTD/svg10.dtd">
<svg version="1.0" xmlns="http://www.w3.org/2000/svg"
 width="377.000000pt" height="377.000000pt" viewBox="0 0 377.000000 377.000000"
 preserveAspectRatio="xMidYMid meet">
<metadata>
Created by potrace 1.11, written by Peter Selinger 2001-2013
</metadata>
<g transform="translate(0.000000,377.000000) scale(0.100000,-0.100000)"
fill="#000000" stroke="none">
<path d="M1950 2918 c1 -629 2 -671 17 -638 9 19 17 37 18 40 9 35 18 49 27
44 6 -4 8 -2 4 4 -17 27 165 262 197 254 7 -2 9 0 5 4 -4 4 5 18 20 31 43 38
176 114 190 108 7 -3 11 -1 8 4 -3 5 25 18 62 30 229 73 459 47 666 -77 92
-54 251 -205 242 -228 -3 -8 -2 -13 2 -10 10 6 65 -77 102 -157 l30 -62 0 663
0 662 -795 0 -795 0 0 -672z"/>
<path d="M1770 3565 c-7 -8 -16 -12 -21 -9 -5 3 -8 0 -7 -8 2 -7 -3 -12 -10
-10 -8 1 -11 -1 -8 -6 7 -12 -43 -64 -55 -56 -5 3 -8 0 -7 -8 2 -7 -3 -12 -10
-10 -8 1 -11 -2 -7 -7 3 -6 -42 -58 -100 -116 l-105 -107 0 81 0 81 -115 0
-115 0 0 -198 0 -197 -490 -490 c-270 -269 -490 -493 -490 -498 0 -4 352 -6
782 -5 l782 3 -3 785 c-1 432 -4 786 -5 788 -2 1 -9 -4 -16 -13z"/>
<path d="M220 1045 l0 -795 785 0 785 0 0 134 c0 138 -4 166 -24 166 -24 1
-132 142 -121 160 4 6 3 9 -2 8 -4 -2 -23 8 -40 21 -50 37 -80 34 -128 -14
-22 -22 -44 -39 -48 -37 -5 1 -6 -2 -2 -8 14 -23 -84 -132 -140 -156 -98 -40
-196 7 -283 137 -43 64 -87 99 -124 99 -34 0 -81 -42 -136 -123 -19 -29 -37
-45 -44 -41 -6 4 -8 3 -4 -4 6 -10 -54 -67 -71 -67 -5 0 -13 -4 -19 -8 -17
-10 -128 -1 -132 12 -2 6 -7 9 -11 6 -5 -2 -26 11 -47 31 -22 19 -32 32 -24
28 8 -4 2 6 -15 23 -16 17 -45 51 -63 77 -19 26 -44 52 -58 58 -21 10 -24 18
-24 65 0 29 2 53 4 53 1 0 18 -5 37 -11 55 -19 96 -55 149 -134 60 -89 89
-114 130 -109 33 4 80 31 80 46 0 5 6 6 13 2 6 -4 9 -4 5 1 -10 10 31 67 43
60 5 -4 6 0 3 8 -7 19 70 102 87 92 7 -5 10 -4 5 3 -3 6 2 16 13 21 25 14 34
14 25 0 -3 -6 4 -4 17 4 40 25 157 1 145 -30 -4 -8 -1 -11 5 -7 13 7 79 -54
79 -73 0 -7 3 -13 8 -13 4 -1 23 -23 42 -50 19 -28 44 -53 55 -56 63 -21 95
-1 165 101 50 71 98 114 151 134 35 13 107 7 122 -9 9 -10 9 -11 -2 -5 -9 5
-12 4 -8 -3 4 -5 15 -8 25 -5 24 6 85 -45 78 -64 -3 -8 -2 -11 3 -8 6 3 24
-16 42 -41 18 -26 26 -43 19 -39 -9 5 -11 4 -6 -3 19 -32 26 -2 26 116 l0 127
-36 23 c-23 15 -34 28 -30 38 3 8 2 13 -3 10 -5 -3 -14 1 -21 9 -7 8 -9 15 -4
15 4 0 1 6 -7 13 -27 22 -70 87 -64 96 3 5 0 13 -6 17 -8 5 -9 3 -4 -6 6 -10
4 -11 -11 -5 -10 5 -39 10 -63 11 -49 2 -56 -4 -120 -98 -17 -27 -39 -48 -47
-48 -8 0 -12 -4 -9 -10 9 -15 -41 -57 -91 -76 -84 -32 -176 5 -243 98 -17 24
-31 46 -31 51 0 4 -11 20 -25 35 -14 15 -25 30 -25 33 0 4 -17 11 -39 16 -60
16 -91 -3 -149 -89 -84 -124 -150 -167 -236 -154 -68 11 -118 48 -174 129 -28
41 -48 78 -44 81 4 4 3 6 -3 5 -5 -1 -24 6 -41 16 -28 17 -31 24 -33 72 -2 59
1 61 57 38 35 -15 138 -112 129 -122 -5 -4 19 -35 59 -79 12 -12 20 -25 17
-27 -2 -3 23 -4 56 -4 33 0 58 4 56 8 -3 4 2 13 11 20 9 7 33 38 54 69 75 111
150 157 237 147 51 -5 129 -56 127 -82 -1 -9 0 -14 3 -11 3 3 11 0 17 -7 21
-22 57 -77 51 -77 -4 0 12 -16 35 -35 56 -47 99 -48 143 -3 18 18 35 32 38 31
3 -1 6 4 6 10 0 40 120 166 145 151 6 -4 8 -3 5 3 -7 12 24 23 63 23 59 0 105
-22 157 -77 29 -30 51 -58 50 -62 -1 -3 8 -17 21 -31 l22 -24 0 109 0 108 -41
35 c-22 19 -62 67 -89 107 -60 88 -96 107 -155 80 -19 -10 -35 -22 -35 -27 0
-6 -7 -8 -14 -5 -9 4 -13 1 -10 -6 2 -7 -6 -27 -19 -44 -19 -26 -26 -30 -37
-20 -11 10 -11 8 0 -6 13 -17 9 -23 -34 -64 -26 -24 -59 -48 -73 -54 -34 -13
-110 -11 -136 3 -12 7 -28 13 -35 14 -22 4 -43 26 -98 104 -58 84 -78 104
-111 114 -25 8 -76 -12 -113 -44 -14 -12 -19 -19 -12 -15 15 8 -69 -114 -96
-138 -11 -10 -26 -20 -34 -21 -7 -1 -24 -8 -37 -15 -15 -8 -45 -12 -82 -9 -73
5 -112 34 -187 139 -28 41 -57 76 -62 77 -6 2 -7 9 -3 15 3 7 3 9 -2 5 -4 -4
-16 -3 -26 3 -15 7 -19 21 -19 60 l0 51 33 -7 c43 -9 79 -33 71 -47 -4 -6 -3
-8 3 -5 12 7 45 -30 106 -117 47 -66 82 -84 135 -67 28 8 46 24 71 64 19 28
46 62 60 75 15 13 24 26 21 29 -3 3 14 19 37 35 33 24 54 31 100 33 32 2 72
-3 90 -10 53 -22 142 -125 135 -157 -1 -5 1 -7 6 -6 4 1 23 -14 44 -35 62 -64
114 -48 187 57 81 117 136 156 223 156 72 0 139 -50 206 -154 l32 -49 0 211 0
212 -785 0 -785 0 0 -795z"/>
<path d="M1960 1827 c0 -13 340 -357 353 -357 4 0 7 36 7 80 l0 80 110 0 110
0 0 -198 0 -197 139 -139 c77 -77 137 -144 134 -149 -3 -6 -1 -7 4 -4 13 8 36
-17 25 -28 -4 -5 -2 -5 4 -2 14 8 137 -116 127 -128 -4 -4 -3 -6 3 -2 5 3 131
-115 279 -264 148 -148 273 -269 277 -269 4 0 8 358 8 795 l0 795 -790 0
c-629 0 -790 -3 -790 -13z"/>
<path d="M1685 1129 c-3 -4 2 -6 10 -5 21 3 28 13 10 13 -9 0 -18 -4 -20 -8z"/>
<path d="M289 763 c-13 -16 -12 -17 4 -4 16 13 21 21 13 21 -2 0 -10 -8 -17
-17z"/>
</g>
</svg>
